<?xml version="1.0" encoding="utf-8"?>
<!-- Generator: Adobe Illustrator 22.0.1, SVG Export Plug-In . SVG Version: 6.00 Build 0)  -->
<svg version="1.1" id="Layer_1" xmlns="http://www.w3.org/2000/svg" xmlns:xlink="http://www.w3.org/1999/xlink" x="0px" y="0px"
	 viewBox="0 0 150 100" style="enable-background:new 0 0 150 100;" xml:space="preserve">
<style type="text/css">
	.st0{clip-path:url(#SVGID_2_);fill:url(#SVGID_3_);}
</style>
<g>
	<g>
		<defs>
			<path id="SVGID_1_" d="M98.5,23.5c0,13-10.6,23.5-23.5,23.5c-13,0-23.5-10.6-23.5-23.5C51.5,10.5,62,0,75,0
				C88-0.1,98.5,10.5,98.5,23.5z M44.4,52.9c-13,0-23.5,10.6-23.5,23.5c0,13,10.6,23.5,23.5,23.5c13,0,23.5-10.6,23.5-23.5
				C67.9,63.5,57.4,52.9,44.4,52.9z M105.6,52.9c-13,0-23.5,10.6-23.5,23.5c0,13,10.6,23.5,23.5,23.5c13,0,23.5-10.6,23.5-23.5
				C129.1,63.5,118.6,52.9,105.6,52.9z"/>
		</defs>
		<clipPath id="SVGID_2_">
			<use xlink:href="#SVGID_1_"  style="overflow:visible;"/>
		</clipPath>
		
			<radialGradient id="SVGID_3_" cx="-17502.9785" cy="-3964.3418" r="79.067" gradientTransform="matrix(0 -0.75 -0.75 0 -2898.2563 -13068.0127)" gradientUnits="userSpaceOnUse">
			<stop  offset="0" style="stop-color:#FDB813"/>
			<stop  offset="0.6" style="stop-color:#F05E8F"/>
			<stop  offset="0.9991" style="stop-color:#F05656"/>
		</radialGradient>
		<path class="st0" d="M75-0.1c32.8,0,59.3,26.5,59.3,59.3s-26.5,59.3-59.3,59.3S15.7,92,15.7,59.2S42.2-0.1,75-0.1z"/>
	</g>
</g>
</svg>
