<?xml version="1.0" encoding="utf-8"?>
<!-- Generator: Adobe Illustrator 21.1.0, SVG Export Plug-In . SVG Version: 6.00 Build 0)  -->
<svg version="1.1" id="Layer_1" xmlns="http://www.w3.org/2000/svg" xmlns:xlink="http://www.w3.org/1999/xlink" x="0px" y="0px"
	 viewBox="0 0 1920 1080" style="enable-background:new 0 0 1920 1080;" xml:space="preserve">
<style type="text/css">
	.st0{enable-background:new    ;}
	.st1{fill:#212121;}
</style>
<title>Logo</title>
<g>
	<g class="st0">
		<path class="st1" d="M196.2,602.3c11.5,0,22.6-0.8,25.6-1.5c4.3-1,7.8-3.3,11.5-7.8c2.8-3.8,5.8-10.8,5.8-15.5
			c0-1.8,0.8-2.3,2-2.3l6.8,0.8c1.3,0.3,2.3,0.5,2,2c-0.8,4.3-0.8,17.3-0.8,26.1c0,11.3,1,23.3,1.5,28.6c0.3,1.5-0.8,1.8-2,2l-6,1.3
			c-1,0.3-1.5-0.3-2-2c-1-4-3.5-9.8-5-12.8c-2.8-4.8-8.8-8-13.8-8.8c-6.8-1-14.5-1.5-25.6-1.5v15c0,13.5,1.3,37.8,1.3,42.4
			c0,13,2.8,17.5,6,19c3.8,1.5,8.5,2.3,21.1,2.3c4.3,0,14.8-0.3,20-0.8c5-0.5,12.5-3,19-8.3c6.5-5.3,20.6-20.8,25.6-26.8
			c1-1,1.8-1.3,2.5-0.8l4.3,2.5c1,0.5,1.3,1.3,1,2l-11.3,37.8c-0.8,2.3-2.5,3.8-5.5,3.8c-1.3,0-6.8-0.3-22.8-0.5
			c-16.3,0-42.9-0.3-86.2-0.3c-9.3,0-16.3,0.3-21.3,0.3c-5.3,0.3-8.5,0.5-10.8,0.5c-1.8,0-2.3-0.8-2.3-2.8V691
			c0-1.5,0.8-2.3,2.5-2.3h7.5c11.5,0,12.5-1.8,12.5-10.5v-84c0-20.8-0.5-51.6-0.8-54.1c-1-8-3.5-9.8-10.3-9.8h-9.8
			c-1,0-1.3-0.8-1.3-2.5v-6c0-0.8,0.3-1.8,1.8-1.8c5.5,0,14.3,0.8,37.1,0.8l88-0.3c4,0,8.8-0.5,10-0.5c1.3,0,1.8,0.5,2,1.3
			c1,3.5,9.3,37.8,10.3,40.4c0.5,1.3,0.5,1.8-0.8,2.5l-4,2c-1,0.5-2.3,0.3-3-1c-1.3-2-23.8-24.6-29.6-28.1c-5.3-3.3-12.3-6.5-19-6.8
			l-33.1-1L196.2,602.3z M208.2,501.3c-0.5-0.5-0.3-1.3,0.3-1.8l32.6-33.8c2.5-2.8,6.5-5,11.3-5c7,0,12.3,6,12.3,12.5
			c0,4.5-4.8,9.5-9.3,11.8l-42.1,20.3c-1,0.5-1.3,0.5-1.8,0L208.2,501.3z"/>
	</g>
	<g class="st0">
		<path class="st1" d="M324,701.6c-1.3,0.8-2,0.8-3,0.5l-3.5-1.3c-1-0.3-1.3-0.8-1-2c0.8-3.5,0.8-24.3,0.8-43.1v-93.5
			c0-16.8-3.3-19.8-11-22.1l-3.5-1c-2.8-0.8-3.3-1.3-3.3-2v-3c0-0.8,0.5-1.8,2.8-2.5c12.5-3.5,28.3-9.8,38.1-14.3
			c4.3-2.3,6.3-3.8,8.8-3.8s3,1.8,3,4.3c0,2-1.8,30.6-2,55.1l-0.5,28.6c9-9,21.1-12,33.6-12c16.3,0,29.1,10.8,35.6,21.3
			c4.3,6.8,7.3,16,7.3,32.3c0,26.3-25.1,58.6-57.4,58.6c-16.5,0-26.1-3-34.3-6.5L324,701.6z M349.8,644.9c0,20.8-0.3,30.1,3,36.6
			c3.5,6.5,7.8,10.8,14.5,10.8c7.3,0,16-2.5,20.8-13c5.3-11.5,4-17.8,4-27.8c0-33.1-13.8-44.1-26.8-44.1c-4.5,0-10.5,1.5-15.5,4.8
			V644.9z"/>
		<path class="st1" d="M497.2,618.4c0-5-0.5-10.8-3.8-13.8c-2.5-2.3-6.5-3-10.5-3c-4.5,0-8.8,1-13.3,4c-3.8,2.5-0.8,6.8-0.8,14.8
			c0,8.5-6.3,14.3-16.3,14.3c-5.8,0-10.8-3.5-10.8-9s1.8-13,7-17.5c10.5-9.5,27.8-18.5,48.1-18.5c16,0,20.3,2.5,25.6,7.3
			c5.5,5,7,12.3,7,21.3L530,668c0.3,13,1,17,5.8,17c3.5,0,6.3-2.8,7.3-4.5c1-1.5,1.8-1.8,2.5-1.3l3.5,2c1,0.5,1.8,1.3,0.8,3.5
			c-2.3,5.3-9.8,17-25.3,17c-9.8,0-19-3.5-23.8-15.3h-1.3c-6.3,5.8-11.5,9.3-21.6,13c-5,1.8-10.8,2.3-18,2.3
			c-8.8,0-16.5-9.5-16.5-23.1c0-11,5.3-22.6,21.6-30.6c19.5-9.3,25.8-12,32.3-16.5V618.4z M497.4,641.7c-12.3,7-22.6,10.8-22.6,28.1
			c0,11.5,5.3,16.3,10.8,16.5c6.8-0.5,11.8-6.8,11.8-9V641.7z"/>
		<path class="st1" d="M600.4,603.3h2c2.8-3.3,7.3-6.5,12-9c5.5-3,11-4.8,19.3-4.8c9.8,0,19.3,1,25.8,7c10.5,9.8,11.3,16,11.3,28.6
			v26.6c0,8.5-0.5,20.3-1,29.1c-0.3,7.5,3.8,8.8,6,8.8h6.8c2.3,0,2.8,0.8,2.8,2.3v4.5c0,1.8-0.5,2.8-2,2.8c-1.8,0-9.5-0.8-29.6-0.8
			c-16.5,0-24.6,0.8-26.3,0.8c-1.5,0-2-0.8-2-2.8v-4.5c0-1.8,0.8-2.3,3.3-2.3h2.8c1.8,0,4-1.3,4.5-5.8c1-6.5,1.5-14.5,1.5-26.1
			v-26.8c0-9.5-0.8-16-6-20.8c-4.5-4-8-4.5-12.3-4.5c-4.5,0-7.8,1.3-12.8,5c-3,2.3-5,9-5,19.3l-0.5,51.4c0,4.5,1.8,8.3,4,8.3h3.3
			c2,0,2.5,0.8,2.5,2.5v4.8c0,1.5-0.5,2.3-1.8,2.3c-1.8,0-8.5-0.8-25.1-0.8c-17.8,0-25.8,0.8-27.3,0.8c-1.3,0-1.8-0.8-1.8-2.3v-5
			c0-1.5,0.5-2.3,2.5-2.3h3.8c2.8,0,7-0.8,7-5v-55.6c0-7.5-4.3-11.8-10-14.5l-2.3-1c-1.5-0.8-1.8-1.8-1.8-2.8v-2.3
			c0-1.3,1-2,2.3-2.5l32.1-14.5c2-0.8,3.8-1.8,5.8-1.8c1.5,0,3,1.3,3.5,3L600.4,603.3z"/>
		<path class="st1" d="M710.2,683.5c-9.5-10.5-13.3-23.8-13.3-39.6c0-11.3,6.3-29.8,21.6-41.6c12.8-10,25.6-12.8,37.3-12.8
			c17.3,0,29.1,5.3,40.4,15.8c12.3,11,17.3,24.6,17.3,39.8c0,14.5-6.3,28.6-16,39.1c-12,12.5-26.6,17.5-43.6,17.5
			C735.5,701.8,723,698.1,710.2,683.5z M775.3,643.4c0-29.1-10-43.4-21.1-43.4c-6.3,0-10.3,1.8-13.5,6.8c-5,7.8-8.3,18.5-8.3,38.8
			c0,14.5,1.3,24.1,6.3,34.8c3.3,6.8,7.3,10.8,16.5,10.8C769.1,691.3,775.3,671,775.3,643.4z"/>
	</g>
	<g class="st0">
		<path class="st1" d="M877.3,629c0-32.9,18.9-58.8,36.8-74.6c14.5-12.7,32.5-24.6,44.7-30.7c-29.8-19.7-43.4-39-43.9-61
			c0.4-34.6,42.5-75,83.8-75c49.1,0,76.3,31.1,75.4,61c-0.9,24.6-28.1,48.7-52.6,57.9c33.8,14.5,63.2,46.9,86.4,81.6
			c15.8-18.9,25.9-45.6,25.9-64c0-7-4.4-13.6-13.6-13.6h-5.7c-2.6,0-3.1-1.3-3.1-3.1V497c0-1.3,0.4-2.2,3.1-2.2
			c3.9,0,27.6,1.3,50.4,1.3c16.2,0,42.5-1.3,45.2-1.3c2.6,0,3.1,1.3,3.1,3.5v9.2c0,1.8-0.4,3.1-3.1,3.1h-7.5
			c-13.2,0-20.6,1.8-26.8,11.4c-3.5,5.7-28.1,49.1-54.8,82.5c5.7,4.4,23.2,27.2,36.4,39.9c6.6,6.6,25,25.4,48.7,25.4
			c28.1,0,42.1-24.1,45.6-28.9c1.3-1.8,2.6-2.2,3.5-1.3l8.8,6.1c0.9,0.4,0.9,1.8-0.4,3.9c-7.9,14.5-37.3,55.3-92.5,55.3
			c-49.6,0-68.9-25.9-92.1-52.2c-18.4,17.5-43.9,52.2-100,52.2C916.8,704.9,877.3,661.9,877.3,629z M1069,636
			c-21.1-35.1-61.8-80.7-95.2-100.4c-14.5,8.8-36.4,40.8-35.5,77.2c0.9,37.7,36.8,58.3,57.5,58.3
			C1034.3,671.1,1053.6,652.3,1069,636z M968.1,451.8c0,18.9,20.2,36,36.8,43.9c9.2-6.1,20.6-16.7,20.6-48.2
			c0-19.3-9.2-41.2-26.8-41.2C975.1,406.2,968.1,429,968.1,451.8z"/>
	</g>
	<g class="st0">
		<path class="st1" d="M1365.9,631.9c0,11.8,0.3,45.9,0.5,48.9c0.5,5.5,3,8,7,8h12.8c1.8,0,2,0.8,2,1.8v6.5c0,1.3-0.3,2-2.3,2
			c-3.5,0-11.3-0.8-40.6-0.8c-22.1,0-31.8,0.8-34.6,0.8c-1.8,0-2-0.8-2-1.8v-6.8c0-1.3,0.3-1.8,1.5-1.8h6.5c8.5,0,10.3-1.3,11-7.5
			c0.3-2.5,1-41.6,1-70.7v-28.8c0-16.5-0.3-42.9-0.5-45.9c-0.5-5-3-5.5-8-5.5h-11.8c-1.3,0-1.5-0.5-1.5-2v-6.5
			c0-1.3,0.3-1.8,1.5-1.8c2.8,0,11.8,0.8,38.1,0.8c4.5,0,19.3-0.8,27.6-0.8c30.8,0,45.6,2.5,60.2,13.8c10.5,8,18,22.3,18,38.8
			c0,30.1-24.1,50.6-66.2,50.6c-7.8,0-13.5-0.3-20.3-0.8V631.9z M1365.9,612.8c5.5,1.3,11.3,1.5,15.3,1.5c7.8,0,20.3-8,25.8-16.8
			c5-7.8,6-17.3,6-26.6c0-34.6-25.1-41.9-35.3-41.9c-4.3,0-7.3,0.3-11.8,1.3V612.8z"/>
	</g>
	<g class="st0">
		<path class="st1" d="M1526.9,699.1c-2,0-13.5-0.8-35.3-0.8c-14.5,0-24.3,0.8-27.1,0.8c-1.3,0-2-0.5-2-2.5v-5c0-1.5,0.8-2,2.5-2
			h9.3c2.8,0,4.5-1,4.8-5c0.5-7.5,0.5-15.3,0.5-22.3l-0.5-35.1c0-7-1.5-12-12-15.8c-2.8-1-3-2-3-3.5v-2.8c0-0.8,0.5-1.3,2.8-2
			l37.3-12c2.8-1,5-1.5,6.8-1.5c2,0,2.8,1.3,2.5,3c-0.5,4.3-0.5,20-0.5,42.1v26.8c0,9.8,0,18.8,0.3,21.6c0.5,4.8,1.8,6.5,4.5,6.5h9
			c2,0,2.5,0.8,2.5,2.3v4.8C1529.1,698.3,1528.6,699.1,1526.9,699.1z M1492.5,570.5c-10.5,0.3-18.3-8-18.3-18
			c0-8.3,8.5-16.5,19.5-16.5c12.3,0,18.5,8.5,18.5,15.8C1512.3,560,1506.6,570,1492.5,570.5z"/>
		<path class="st1" d="M1584.5,603.3h2c2.8-3.3,7.3-6.5,12-9c5.5-3,11-4.8,19.3-4.8c9.8,0,19.3,1,25.8,7c10.5,9.8,11.3,16,11.3,28.6
			v26.6c0,8.5-0.5,20.3-1,29.1c-0.3,7.5,3.8,8.8,6,8.8h6.8c2.3,0,2.8,0.8,2.8,2.3v4.5c0,1.8-0.5,2.8-2,2.8c-1.8,0-9.5-0.8-29.6-0.8
			c-16.5,0-24.6,0.8-26.3,0.8c-1.5,0-2-0.8-2-2.8v-4.5c0-1.8,0.8-2.3,3.3-2.3h2.8c1.8,0,4-1.3,4.5-5.8c1-6.5,1.5-14.5,1.5-26.1
			v-26.8c0-9.5-0.8-16-6-20.8c-4.5-4-8-4.5-12.3-4.5c-4.5,0-7.8,1.3-12.8,5c-3,2.3-5,9-5,19.3l-0.5,51.4c0,4.5,1.8,8.3,4,8.3h3.3
			c2,0,2.5,0.8,2.5,2.5v4.8c0,1.5-0.5,2.3-1.8,2.3c-1.8,0-8.5-0.8-25.1-0.8c-17.8,0-25.8,0.8-27.3,0.8c-1.3,0-1.8-0.8-1.8-2.3v-5
			c0-1.5,0.5-2.3,2.5-2.3h3.8c2.8,0,7-0.8,7-5v-55.6c0-7.5-4.3-11.8-10-14.5l-2.3-1c-1.5-0.8-1.8-1.8-1.8-2.8v-2.3
			c0-1.3,1-2,2.3-2.5l32.1-14.5c2-0.8,3.8-1.8,5.8-1.8c1.5,0,3,1.3,3.5,3L1584.5,603.3z"/>
		<path class="st1" d="M1694.3,683.5c-9.5-10.5-13.3-23.8-13.3-39.6c0-11.3,6.3-29.8,21.6-41.6c12.8-10,25.6-12.8,37.3-12.8
			c17.3,0,29.1,5.3,40.4,15.8c12.3,11,17.3,24.6,17.3,39.8c0,14.5-6.3,28.6-16,39.1c-12,12.5-26.6,17.5-43.6,17.5
			C1719.6,701.8,1707,698.1,1694.3,683.5z M1759.4,643.4c0-29.1-10-43.4-21.1-43.4c-6.3,0-10.3,1.8-13.5,6.8
			c-5,7.8-8.3,18.5-8.3,38.8c0,14.5,1.3,24.1,6.3,34.8c3.3,6.8,7.3,10.8,16.5,10.8C1753.2,691.3,1759.4,671,1759.4,643.4z"/>
	</g>
	<path class="st1" d="M0,290.3l60-1.9l60-1.4l120-2.8l120-2c40-0.7,80-1,120-1.5l60-0.7l60-0.5l120-0.9l240-0.7l240,0.7l120,0.9
		l60,0.5l60,0.7l60,0.7c20,0.2,40,0.5,60,0.8l120,2l120,2.7l60,1.4l60,1.8v1.4l-960,0.7L0,291.7L0,290.3z"/>
	<path class="st1" d="M1920,789.7l-60,1.9l-60,1.4l-120,2.8l-120,2c-40,0.7-80,1-120,1.5l-60,0.7l-60,0.5l-120,0.9L960,802l-240-0.7
		l-120-0.9l-60-0.5l-60-0.7l-60-0.7c-20-0.2-40-0.5-60-0.8l-120-2l-120-2.7l-60-1.4l-60-1.8v-1.4l960-0.7l960,0.7V789.7z"/>
</g>
</svg>
