<?xml version="1.0" encoding="utf-8"?>
<!-- Generator: Adobe Illustrator 22.0.1, SVG Export Plug-In . SVG Version: 6.00 Build 0)  -->
<svg version="1.1" id="Layer_1" xmlns="http://www.w3.org/2000/svg" xmlns:xlink="http://www.w3.org/1999/xlink" x="0px" y="0px"
	 viewBox="0 0 150 100" style="enable-background:new 0 0 150 100;" xml:space="preserve">
<style type="text/css">
	.st0{fill:none;}
	.st1{fill:#4285F4;}
	.st2{fill:#34A853;}
	.st3{fill:#FBBC05;}
	.st4{fill:#EB4335;}
</style>
<g id="Layer_2_1_">
	<rect x="25" class="st0" width="100" height="100"/>
</g>
<g id="Layer_1_1_">
	<title>Box-logo</title>
	<desc>Created with Sketch.</desc>
	<g id="_x5B_Desktop_x5D_-AppBridge.io-">
		<g id="_x5B_Desktop_x5D_-Surveyor-V2" transform="translate(-273.000000, -548.000000)">
			<g id="Supported-Sources" transform="translate(196.000000, 435.000000)">
				<g id="Sources-List" transform="translate(77.000000, 112.000000)">
					<g id="Google-G-Logo" transform="translate(0.000000, 1.000000)">
						<rect id="Rectangle" x="28.3" y="3.8" class="st0" width="93.3" height="93.3"/>
						<path id="Shape" class="st1" d="M121.7,51.3c0-3.7-0.4-6.7-1-9.6H75.8V59h26.3c-0.6,4.4-3.3,10.8-9.8,15v0.6l14.2,10.6h1
							C116.5,77.3,121.7,65.4,121.7,51.3"/>
						<path id="Shape_1_" class="st2" d="M75.8,96.7c12.9,0,23.5-4.2,31.5-11.3L92.3,74c-4,2.7-9.4,4.6-16.5,4.6
							c-12.5,0-23.3-8.1-27.1-19.4h-0.6l-14.8,11V71C41.3,86.3,57.3,96.7,75.8,96.7"/>
						<path id="Shape_2_" class="st3" d="M49,59.4c-1-2.9-1.7-6-1.7-9.2s0.6-6.3,1.5-9.2v-0.6L34,29.2l-0.6,0.2
							c-3.1,6.3-5,13.3-5,20.8s1.9,14.6,5,20.8L49,59.4"/>
						<path id="Shape_3_" class="st4" d="M75.8,21.7c9,0,15,3.8,18.3,6.9l13.3-12.9c-8.3-7.5-19-12.1-31.9-12.1
							C57.1,3.5,40.8,14,33.1,29.2l15.4,11.7C52.7,29.8,63.3,21.7,75.8,21.7"/>
					</g>
				</g>
			</g>
		</g>
	</g>
</g>
</svg>
