<?xml version="1.0" encoding="utf-8"?>
<!-- Generator: Adobe Illustrator 22.0.1, SVG Export Plug-In . SVG Version: 6.00 Build 0)  -->
<svg version="1.1" id="lockup-gsuite" xmlns="http://www.w3.org/2000/svg" xmlns:xlink="http://www.w3.org/1999/xlink" x="0px"
	 y="0px" viewBox="0 0 150 100" style="enable-background:new 0 0 150 100;" xml:space="preserve">
<style type="text/css">
	.st0{opacity:0.54;}
</style>
<g id="XMLID_54_" class="st0">
	<g id="XMLID_55_">
		<path id="XMLID_69_" d="M27.6,41.3c-1.2-1.2-2.4-2.1-3.8-2.7c-1.3-0.6-3-0.9-5-0.9c-1.6,0-3.1,0.3-4.5,0.8s-2.6,1.3-3.7,2.4
			c-1.1,1-1.9,2.3-2.5,3.7s-0.9,3-0.9,4.8c0,1.8,0.3,3.4,0.9,4.8s1.4,2.7,2.5,3.7s2.3,1.8,3.7,2.4c1.4,0.6,2.9,0.8,4.5,0.8
			c1.7,0,3.2-0.2,4.5-0.7c1.3-0.5,2.4-1.1,3.3-2c0.6-0.6,1.2-1.2,1.6-2.1c0.5-0.8,0.9-1.8,1.1-2.8H18.7v-6.1h17.5
			c0.1,0.4,0.2,0.9,0.3,1.5c0.1,0.6,0.1,1.2,0.1,1.8c0,2.4-0.4,4.6-1.1,6.6c-0.7,2-1.8,3.8-3.2,5.3c-1.6,1.7-3.5,3-5.7,3.9
			c-2.2,0.9-4.8,1.4-7.7,1.4c-2.6,0-5-0.5-7.3-1.4c-2.3-0.9-4.3-2.2-6-3.9c-1.7-1.6-3-3.6-4.1-5.9c-1-2.3-1.5-4.8-1.5-7.5
			c0-2.7,0.5-5.2,1.5-7.5c1-2.3,2.3-4.2,4.1-5.9c1.7-1.6,3.7-2.9,6-3.9c2.3-0.9,4.7-1.4,7.3-1.4c2.9,0,5.6,0.5,7.8,1.5
			s4.2,2.4,5.9,4.2L27.6,41.3z"/>
		<g id="XMLID_56_">
			<path id="XMLID_67_" d="M72.5,57.7c0,3.1-1.1,5.6-3.4,7.5C66.8,67.1,64,68,60.7,68c-2.9,0-5.6-0.9-7.8-2.6
				c-2.3-1.7-3.8-4.1-4.7-7.1l4.4-1.8c0.3,1.1,0.7,2,1.2,2.9c0.5,0.9,1.1,1.6,1.9,2.2c0.7,0.6,1.5,1.1,2.4,1.4
				c0.9,0.4,1.8,0.5,2.7,0.5c2.1,0,3.8-0.5,5.1-1.6c1.3-1.1,2-2.5,2-4.3c0-1.5-0.6-2.8-1.6-3.8c-1-1-2.9-2-5.8-3
				c-2.8-1-4.6-1.7-5.3-2.1c-3.8-1.9-5.7-4.7-5.7-8.5c0-2.6,1-4.8,3.1-6.7c2.1-1.9,4.7-2.8,7.8-2.8c2.7,0,5.1,0.7,7.1,2.1
				c2,1.4,3.3,3.1,4,5.1l-4.2,1.8c-0.4-1.3-1.2-2.4-2.4-3.3c-1.2-0.9-2.6-1.3-4.3-1.3c-1.8,0-3.3,0.5-4.5,1.5
				c-1.2,0.9-1.8,2.1-1.8,3.6c0,1.2,0.5,2.3,1.4,3.2c1.1,0.9,3.4,2,6.9,3.2c3.6,1.2,6.2,2.7,7.7,4.5C71.8,52.9,72.5,55.1,72.5,57.7z
				"/>
			<path id="XMLID_65_" d="M97.9,67.2h-4.4v-3.4h-0.2c-0.7,1.2-1.8,2.2-3.2,3c-1.4,0.8-2.9,1.2-4.5,1.2c-3,0-5.3-0.9-6.9-2.6
				c-1.6-1.7-2.4-4.1-2.4-7.3V42.8h4.6v15c0.1,4,2.1,6,6,6c1.8,0,3.3-0.7,4.6-2.2c1.2-1.5,1.8-3.2,1.8-5.3V42.8h4.6V67.2z"/>
			<path id="XMLID_62_" d="M108.3,34.4c0,0.9-0.3,1.6-0.9,2.3c-0.6,0.6-1.4,0.9-2.3,0.9c-0.9,0-1.6-0.3-2.3-0.9
				c-0.6-0.6-0.9-1.4-0.9-2.3c0-0.9,0.3-1.6,0.9-2.3c0.6-0.6,1.4-0.9,2.3-0.9c0.9,0,1.6,0.3,2.3,0.9C108,32.8,108.3,33.5,108.3,34.4
				z M107.4,42.8v24.3h-4.6V42.8H107.4z"/>
			<path id="XMLID_60_" d="M121.4,67.6c-2,0-3.6-0.6-4.9-1.8c-1.3-1.2-2-2.9-2-5.1V47h-4.3v-4.2h4.3v-7.5h4.6v7.5h6V47h-6v12.1
				c0,1.6,0.3,2.7,0.9,3.3c0.6,0.6,1.3,0.9,2.1,0.9c0.4,0,0.7-0.1,1.1-0.1c0.4-0.1,0.7-0.2,1-0.3l1.4,4.1
				C124.4,67.4,123,67.6,121.4,67.6L121.4,67.6z"/>
			<path id="XMLID_57_" d="M138.5,68c-3.6,0-6.5-1.2-8.9-3.7c-2.3-2.5-3.5-5.6-3.5-9.3c0-3.7,1.1-6.8,3.4-9.3
				c2.3-2.5,5.1-3.7,8.6-3.7c3.6,0,6.5,1.2,8.6,3.5c2.1,2.3,3.2,5.6,3.2,9.8l-0.1,0.5h-19.1c0.1,2.4,0.9,4.3,2.4,5.8
				c1.5,1.4,3.3,2.2,5.5,2.2c2.9,0,5.2-1.4,6.8-4.4l4.1,2c-1.1,2.1-2.6,3.7-4.5,4.8C143.1,67.4,140.9,68,138.5,68L138.5,68z
				 M131.2,52.1h14c-0.1-1.7-0.8-3.1-2.1-4.2c-1.2-1.1-2.9-1.7-5-1.7c-1.7,0-3.2,0.5-4.4,1.6C132.4,48.9,131.6,50.3,131.2,52.1z"/>
		</g>
	</g>
</g>
</svg>
