<?xml version="1.0" encoding="utf-8"?>
<!-- Generator: Adobe Illustrator 21.1.0, SVG Export Plug-In . SVG Version: 6.00 Build 0)  -->
<svg version="1.1" id="Layer_1" xmlns="http://www.w3.org/2000/svg" xmlns:xlink="http://www.w3.org/1999/xlink" x="0px" y="0px"
	 viewBox="0 0 1920 1080" style="enable-background:new 0 0 1920 1080;" xml:space="preserve">
<style type="text/css">
	.st0{fill:#FFFFFF;}
</style>
<g>
	<polygon class="st0" points="203,691.3 248.2,691.3 114.4,504.7 242.3,380.6 195.4,380.6 34.3,541.8 34.3,380.6 0,380.6 0,691.3 
		34.3,691.3 34.3,581.7 89.8,528.7 	"/>
	<g>
		<path class="st0" d="M441.3,483.1c-60.3,0-107.7,47.7-107.7,108.6c0,60.3,47.2,107.7,107.7,107.7s107.7-47.2,107.7-107.7
			C548.9,530.8,501.7,483.1,441.3,483.1z M441.3,670.9c-43.7,0-76.5-34.3-76.5-79.6s32.8-79.6,76.5-79.6s76.5,34.3,76.5,79.6
			S485,670.9,441.3,670.9z"/>
		<path class="st0" d="M741,511.5c42.7,0,46.3,31.4,46.3,66.3v115.7h31.2v-122c0-60.3-21.8-88.5-68.9-88.5
			c-23.9,0-42.9,9.9-57.8,30.3l-0.6,1h-4.2v-25.4h-31.2v204.7h31.2v-97.1C686.8,566.9,686.8,511.5,741,511.5z"/>
		<path class="st0" d="M1092.8,510.6c-17.3-18.3-41.1-28-68.6-28c-68.6,0-99.2,55.7-99.2,110.8c0,62.1,41.1,105.5,100.1,105.5
			c40.4,0,73.6-19.7,93.5-55.7l-26.4-15.2c-16.3,28.5-37.5,42.4-64.6,42.4c-40.4,0-70.2-30.3-70.7-72v-2.3h164.4
			C1122.8,562.5,1112.4,531.4,1092.8,510.6z M958.4,570.3l0.3-2.6c4.5-31.2,34.1-56.6,65.8-56.6c31.1,0,58.4,24.3,63.6,56.6l0.5,2.6
			H958.4z"/>
		<path class="st0" d="M1228.1,591.1c0,61.6,46.9,108.1,109,108.1c22.8,0,43.2-6.5,64.1-20.4v-41.1c-18.6,22.5-39.8,33-66.8,33
			c-42.4,0-74.3-34.3-74.3-79.6c0-44.7,33.5-79.6,76-79.6c24.4,0,45.3,10.5,63.6,32.2v-40.9c-18.3-12.8-40.4-19.9-62.3-19.9
			C1276.1,483.1,1228.1,530.6,1228.1,591.1z"/>
		<polygon class="st0" points="1598.1,488.9 1560.7,488.9 1560.7,413.7 1529.5,413.7 1529.5,488.9 1507.6,488.9 1507.6,517.4 
			1529.5,517.4 1529.5,693.5 1560.7,693.5 1560.7,517.4 1598.1,517.4 		"/>
		<path class="st0" d="M1812.3,483.1c-60.3,0-107.7,47.7-107.7,108.6c0,60.3,47.2,107.7,107.7,107.7S1920,652.1,1920,591.6
			C1920,530.8,1872.6,483.1,1812.3,483.1z M1812.3,670.9c-43.7,0-76.5-34.3-76.5-79.6s32.8-79.6,76.5-79.6
			c43.7,0,76.5,34.3,76.5,79.6S1855.9,670.9,1812.3,670.9z"/>
	</g>
</g>
</svg>
