<svg id="Layer_1" data-name="Layer 1" xmlns="http://www.w3.org/2000/svg" viewBox="0 0 930.13 321.6"><defs><style>.cls-1{fill:#064789;}.cls-2{fill:#427aa1;}.cls-3{fill:#a5be00;}</style></defs><title>Logo</title><path class="cls-1" d="M149.38,135.77a21.16,21.16,0,0,1,6.6-5.1,19,19,0,0,1,8.25-1.8c5.25,0,9.9,1.65,13.05,5.85a20.93,20.93,0,0,1,15.15-5.85c12.15,0,18.16,10,18.16,21.15v55.35H195.13V150c0-4.65-.3-9.6-6.45-9.6-9,0-8.7,9.6-8.7,15.9v49.05H164.53V150c0-4.2-.75-9.6-6.3-9.6-8.7,0-8.85,9.6-8.85,15.9v49.05H133.93V130.22h15.45Z"/><path class="cls-1" d="M248.63,170.87c-.75,13.65,8.1,22.95,21.9,22.95,4.5,0,10.2-.45,11.85-5.25h15.3c-.75,14.25-16.2,18.15-27.9,18.15-23.85,0-36.6-15-36.6-38.4,0-22.35,10.95-39.45,34.65-39.45s32.7,15.45,32.7,37.35v4.65ZM285.08,158c-.15-10.05-7.65-16.2-17.55-16.2-9.45,0-18.3,6.15-18.9,16.2Z"/><path class="cls-1" d="M338.58,170.87c-.75,13.65,8.1,22.95,21.9,22.95,4.5,0,10.2-.45,11.85-5.25h15.3c-.75,14.25-16.2,18.15-27.9,18.15-23.85,0-36.6-15-36.6-38.4,0-22.35,10.95-39.45,34.65-39.45s32.7,15.45,32.7,37.35v4.65ZM375,158c-.15-10.05-7.65-16.2-17.55-16.2-9.45,0-18.3,6.15-18.9,16.2Z"/><path class="cls-2" d="M441,128.87h26.85v12.9H441v37.65c0,7.05,1.2,14.4,10,14.4,5.25,0,12.6-2.7,16.8-5.85v14.25a35.47,35.47,0,0,1-17.1,4.5c-18.15,0-25.2-12-25.2-28.8V141.77H410.07v-12.9h15.46v-17.1l15.45-4Z"/><path class="cls-3" d="M542.21,198.17a31.79,31.79,0,0,1-21.75,8.55c-14.55,0-27-7.95-27-23.25,0-19.5,18.3-25.35,34.8-25.35h14v-2.7c0-8.55-1.2-14.85-14-14.85-8,0-16,1.2-16,8.55H496.76c1.05-16.65,17-20.25,30.75-20.25,21.75,0,30.15,7.65,30.15,29.7v46.8H542.21Zm-16.05-28.35c-8.4,0-17.25,3.15-17.25,13.05,0,7.8,5.55,12.15,13.05,12.15,13.65,0,20.25-10.35,20.25-22.65v-2.55Z"/><path class="cls-3" d="M584.67,96.17h15.45v42.3h.45c5.1-6.75,14.25-9.6,22.35-9.6,23.1,0,32.55,19.95,32.55,40.2,0,20.1-12.15,37.65-33.6,37.65-8.1,0-16.2-3-21.75-9v7.65H584.67Zm15.45,71.7c0,12.6,5.4,25.95,20.1,25.95,13.95,0,19.8-13,19.8-25.2s-4.5-26.85-19-26.85C605.82,141.77,600.12,154.52,600.12,167.87Z"/><path class="cls-3" d="M693.09,176.42c0,12.45,4.65,16.05,16.95,16.05h10.05v12.9h-14c-22.5,0-28.5-11.7-28.5-32.85V96.17h15.45Z"/><path class="cls-3" d="M748.11,170.87c-.75,13.65,8.1,22.95,21.9,22.95,4.5,0,10.2-.45,11.85-5.25h15.3c-.75,14.25-16.2,18.15-27.9,18.15-23.85,0-36.6-15-36.6-38.4,0-22.35,11-39.45,34.65-39.45S800,144.32,800,166.22v4.65ZM784.56,158c-.15-10.05-7.65-16.2-17.55-16.2-9.45,0-18.3,6.15-18.9,16.2Z"/></svg>