<?xml version="1.0" encoding="utf-8"?>
<!-- Generator: Adobe Illustrator 22.0.1, SVG Export Plug-In . SVG Version: 6.00 Build 0)  -->
<svg version="1.1" id="Layer_1" xmlns="http://www.w3.org/2000/svg" xmlns:xlink="http://www.w3.org/1999/xlink" x="0px" y="0px"
	 viewBox="0 0 930.1 321.6" style="enable-background:new 0 0 930.1 321.6;" xml:space="preserve">
<style type="text/css">
	.st0{fill:#FFFFFF;}
</style>
<g>
	<path class="st0" d="M149.4,135.8c2-2.3,4.2-3.9,6.6-5.1c2.6-1.2,5.3-1.8,8.3-1.8c5.3,0,9.9,1.7,13.1,5.8c4.2-4.1,9.3-5.8,15.2-5.8
		c12.2,0,18.2,10.1,18.2,21.2v55.4h-15.5V150c0-4.7-0.3-9.6-6.5-9.6c-9,0-8.7,9.6-8.7,15.9v49.1h-15.5V150c0-4.2-0.8-9.6-6.3-9.6
		c-8.7,0-8.9,9.6-8.9,15.9v49.1h-15.5v-75.2h15.5V135.8z"/>
	<path class="st0" d="M248.6,170.9c-0.8,13.7,8.1,23,21.9,23c4.5,0,10.2-0.4,11.9-5.3h15.3c-0.8,14.3-16.2,18.2-27.9,18.2
		c-23.9,0-36.6-15-36.6-38.4c0-22.4,11-39.5,34.7-39.5c23.6,0,32.7,15.5,32.7,37.4v4.7H248.6z M285.1,158
		c-0.2-10.1-7.7-16.2-17.6-16.2c-9.5,0-18.3,6.2-18.9,16.2H285.1z"/>
	<path class="st0" d="M338.6,170.9c-0.8,13.7,8.1,23,21.9,23c4.5,0,10.2-0.4,11.9-5.3h15.3c-0.8,14.3-16.2,18.2-27.9,18.2
		c-23.9,0-36.6-15-36.6-38.4c0-22.4,11-39.5,34.7-39.5c23.6,0,32.7,15.5,32.7,37.4v4.7H338.6z M375,158
		c-0.2-10.1-7.7-16.2-17.6-16.2c-9.5,0-18.3,6.2-18.9,16.2H375z"/>
	<path class="st0" d="M441,128.9h26.9v12.9H441v37.7c0,7.1,1.2,14.4,10.1,14.4c5.3,0,12.6-2.7,16.8-5.9v14.3
		c-4.8,2.8-11.4,4.5-17.1,4.5c-18.2,0-25.2-12-25.2-28.8v-36.2h-15.5v-12.9h15.5v-17.1l15.5-4.1V128.9z"/>
	<path class="st0" d="M542.2,198.2c-5.9,5.6-13.8,8.6-21.8,8.6c-14.6,0-27-8-27-23.3c0-19.5,18.3-25.4,34.8-25.4h14v-2.7
		c0-8.6-1.2-14.9-14-14.9c-7.9,0-16.1,1.2-16.1,8.6h-15.5c1.1-16.7,17-20.3,30.8-20.3c21.8,0,30.2,7.7,30.2,29.7v46.8h-15.5V198.2z
		 M526.2,169.8c-8.4,0-17.3,3.1-17.3,13.1c0,7.8,5.6,12.2,13.1,12.2c13.7,0,20.3-10.4,20.3-22.7v-2.6H526.2z"/>
	<path class="st0" d="M584.7,96.2h15.5v42.3h0.4c5.1-6.8,14.3-9.6,22.4-9.6c23.1,0,32.6,20,32.6,40.2c0,20.1-12.2,37.7-33.6,37.7
		c-8.1,0-16.2-3-21.8-9v7.6h-15.5V96.2z M600.1,167.9c0,12.6,5.4,26,20.1,26c14,0,19.8-13.1,19.8-25.2c0-12.2-4.5-26.9-19.1-26.9
		C605.8,141.8,600.1,154.5,600.1,167.9z"/>
	<path class="st0" d="M693.1,176.4c0,12.5,4.7,16.1,17,16.1h10.1v12.9h-14c-22.5,0-28.5-11.7-28.5-32.9V96.2h15.5V176.4z"/>
	<path class="st0" d="M748.1,170.9c-0.8,13.7,8.1,23,21.9,23c4.5,0,10.2-0.4,11.9-5.3h15.3c-0.8,14.3-16.2,18.2-27.9,18.2
		c-23.9,0-36.6-15-36.6-38.4c0-22.4,10.9-39.5,34.7-39.5c23.6,0,32.7,15.5,32.7,37.4v4.7H748.1z M784.6,158
		c-0.1-10.1-7.6-16.2-17.6-16.2c-9.5,0-18.3,6.2-18.9,16.2H784.6z"/>
</g>
</svg>
