<?xml version="1.0" encoding="utf-8"?>
<!-- Generator: Adobe Illustrator 21.1.0, SVG Export Plug-In . SVG Version: 6.00 Build 0)  -->
<svg version="1.1" id="Layer_1" xmlns="http://www.w3.org/2000/svg" xmlns:xlink="http://www.w3.org/1999/xlink" x="0px" y="0px"
	 viewBox="0 0 885.4 388.2" style="enable-background:new 0 0 885.4 388.2;" xml:space="preserve">
<style type="text/css">
	.st0{fill:#4CC8EE;}
	.st1{fill:#054E5C;}
	.st2{fill:#016273;}
	.st3{fill:#0095B0;}
	.st4{fill:#02B0D0;}
	.st5{fill:#0E395C;}
	.st6{fill:#16588F;}
	.st7{fill:#3C86C7;}
</style>
<title>Artboard 1 copy 2</title>
<polygon class="st0" points="122.1,124.8 97.6,100.3 87.4,110.5 97.6,135 "/>
<polygon class="st1" points="122.1,124.8 132.3,100.3 107.7,90.1 97.6,100.3 122.1,124.8 "/>
<polygon class="st2" points="107.8,159.5 156.8,159.4 122.1,124.8 "/>
<polygon class="st3" points="156.8,110.4 156.8,159.4 191.5,124.7 "/>
<polygon class="st2" points="132.3,100.3 122.1,124.8 156.8,110.4 "/>
<polygon class="st1" points="122.1,124.8 122.1,124.8 97.6,135 107.8,159.5 107.8,159.5 "/>
<polygon class="st0" points="156.8,159.4 156.8,159.4 156.8,159.4 156.8,110.4 156.8,110.4 122.1,124.8 122.1,124.8 "/>
<polygon class="st4" points="107.7,90.1 73,75.8 97.6,100.3 "/>
<polygon class="st3" points="97.6,100.3 73,75.8 87.4,110.5 "/>
<polygon class="st0" points="191.5,194.1 216.1,218.5 226.2,208.4 216,183.9 "/>
<polygon class="st4" points="191.5,194.1 181.4,218.6 205.9,228.7 216.1,218.5 191.5,194.1 "/>
<polygon class="st3" points="205.9,159.4 156.8,159.4 191.5,194.1 "/>
<polygon class="st4" points="156.8,159.4 156.8,159.4 205.9,159.4 205.9,159.4 191.5,124.7 191.5,124.7 "/>
<polygon class="st1" points="181.4,218.6 191.5,194.1 156.9,208.4 "/>
<polygon class="st4" points="191.5,194.1 191.5,194.1 216,183.9 205.9,159.4 205.9,159.4 "/>
<polygon class="st1" points="156.8,159.4 156.8,159.4 156.8,159.4 156.9,208.4 156.9,208.4 191.5,194.1 191.5,194.1 "/>
<polygon class="st4" points="205.9,228.7 240.6,243 216.1,218.5 "/>
<polygon class="st3" points="216.1,218.5 240.6,243 226.2,208.4 "/>
<polygon class="st3" points="73.1,145.1 97.7,169.6 107.8,159.5 97.6,135 "/>
<polygon class="st4" points="73.1,145.1 63,169.7 87.5,179.8 97.7,169.6 73.1,145.1 "/>
<polygon class="st1" points="87.4,110.5 38.4,110.5 73.1,145.1 "/>
<polygon class="st2" points="38.4,110.5 38.4,110.5 87.4,110.5 87.4,110.5 73,75.8 73,75.8 "/>
<polygon class="st3" points="38.5,159.5 38.4,110.5 3.8,145.2 "/>
<polygon class="st3" points="63,169.7 73.1,145.1 38.5,159.5 "/>
<polygon class="st4" points="73.1,145.1 73.1,145.1 97.6,135 87.4,110.5 87.4,110.5 "/>
<polygon class="st4" points="38.4,110.5 38.4,110.5 38.4,110.5 38.5,159.5 38.5,159.5 73.1,145.1 73.1,145.1 "/>
<polygon class="st4" points="122.3,263.5 146.8,288 157,277.8 146.8,253.3 "/>
<polygon class="st1" points="122.3,263.5 112.1,288 136.7,298.1 146.8,288 122.3,263.5 "/>
<polygon class="st3" points="136.6,228.8 87.6,228.8 122.3,263.5 "/>
<polygon class="st4" points="87.6,277.9 87.6,228.8 52.9,263.5 "/>
<polygon class="st4" points="112.1,288 122.3,263.5 87.6,277.9 "/>
<polygon class="st4" points="122.3,263.5 122.3,263.5 146.8,253.3 136.6,228.8 136.6,228.8 "/>
<polygon class="st0" points="87.6,228.8 87.6,228.8 87.6,228.8 87.6,277.9 87.6,277.9 122.3,263.5 122.3,263.5 "/>
<polygon class="st4" points="136.7,298.1 171.4,312.5 146.8,288 "/>
<polygon class="st3" points="146.8,288 171.4,312.5 157,277.8 "/>
<polygon class="st1" points="171.3,243.1 146.7,218.6 136.6,228.8 146.8,253.3 "/>
<polygon class="st3" points="171.3,243.1 181.4,218.6 156.9,208.4 146.7,218.6 171.3,243.1 "/>
<polygon class="st4" points="157,277.8 206,277.7 171.3,243.1 "/>
<polygon class="st3" points="206,277.7 206,277.7 157,277.8 157,277.8 171.4,312.5 171.4,312.5 "/>
<polygon class="st1" points="205.9,228.7 206,277.7 240.6,243 "/>
<polygon class="st0" points="181.4,218.6 171.3,243.1 205.9,228.7 "/>
<polygon class="st0" points="171.3,243.1 171.3,243.1 146.8,253.3 157,277.8 157,277.8 "/>
<polygon class="st3" points="206,277.7 206,277.7 206,277.7 205.9,228.7 205.9,228.7 171.3,243.1 171.3,243.1 "/>
<polygon class="st0" points="52.9,194.2 28.3,169.7 18.2,179.9 28.3,204.4 "/>
<polygon class="st4" points="52.9,194.2 63,169.7 38.5,159.5 28.3,169.7 52.9,194.2 "/>
<polygon class="st3" points="38.5,228.9 87.6,228.8 52.9,194.2 "/>
<polygon class="st0" points="87.6,228.8 87.6,228.8 38.5,228.9 38.5,228.9 52.9,263.5 52.9,263.5 "/>
<polygon class="st0" points="156.8,159.4 156.8,159.4 107.8,159.5 107.8,159.5 122.2,194.1 122.2,194.1 "/>
<polygon class="st0" points="156.9,208.4 156.8,159.4 122.2,194.1 "/>
<polygon class="st0" points="87.5,179.8 122.2,194.1 97.7,169.6 "/>
<polygon class="st0" points="97.7,169.6 122.2,194.1 107.8,159.5 "/>
<polygon class="st0" points="87.6,228.8 87.6,228.8 136.6,228.8 136.6,228.8 122.2,194.1 122.2,194.1 "/>
<polygon class="st0" points="156.9,208.4 122.2,194.1 146.7,218.6 "/>
<polygon class="st0" points="146.7,218.6 122.2,194.1 136.6,228.8 "/>
<polygon class="st0" points="87.5,179.8 87.6,228.8 122.2,194.1 "/>
<polygon class="st1" points="63,169.7 52.9,194.2 87.5,179.8 "/>
<polygon class="st3" points="52.9,194.2 52.9,194.2 28.3,204.4 38.5,228.9 38.5,228.9 "/>
<polygon class="st1" points="87.6,228.8 87.6,228.8 87.6,228.8 87.5,179.8 87.5,179.8 52.9,194.2 52.9,194.2 "/>
<polygon class="st1" points="38.5,159.5 3.8,145.2 28.3,169.7 "/>
<polygon class="st1" points="28.3,169.7 3.8,145.2 18.2,179.9 "/>
<path class="st5" d="M73,75.8l118.4,48.9L240.6,243l-69.3,69.4L52.9,263.5L3.8,145.2L73,75.8 M72.4,72.7L71.2,74L1.9,143.4l-1.2,1.2
	l0.7,1.6l49.2,118.3l0.4,1l1,0.4l118.4,48.9l1.6,0.7l1.2-1.2l69.3-69.4l1.2-1.2l-0.7-1.6l-49.2-118.3l-0.4-1l-1-0.4L74.1,73.4
	L72.4,72.7L72.4,72.7z"/>
<path class="st5" d="M407.4,252.3v-87.5l-34.1,65.2h-13.9l-34.1-65.2v87.5h-25.7V120.2h27.6l39.1,75.2l39.5-75.2h27.4v132.1H407.4z"
	/>
<path class="st6" d="M483.9,254.3c-4.5,0-9-0.7-13.2-2.3c-3.9-1.4-7.5-3.6-10.6-6.5c-3-2.8-5.3-6.1-7-9.8c-1.7-3.9-2.6-8.1-2.5-12.3
	c0-4.4,1-8.8,3.1-12.8c2.1-3.9,5-7.3,8.6-10c4-2.9,8.4-5.1,13.1-6.5c5.4-1.6,11.1-2.4,16.8-2.3c4.3,0,8.5,0.4,12.8,1.1
	c3.8,0.6,7.5,1.7,11.1,3.2v-5.6c0-6.5-1.8-11.4-5.5-14.9s-9.1-5.2-16.3-5.2c-5.2,0-10.4,0.9-15.3,2.7c-5.4,2.1-10.5,4.9-15.3,8.2
	l-7.6-15.8c12-8.1,26.1-12.5,40.6-12.5c14,0,24.9,3.5,32.7,10.4c7.8,6.9,11.7,16.9,11.7,29.8v30.4c-0.2,2,0.3,3.9,1.4,5.6
	c1.2,1.2,2.8,1.9,4.6,1.9v21.2c-3.6,0.8-7.3,1.2-11,1.3c-4.7,0-8.4-1.1-10.9-3.2c-2.6-2.1-4.2-5.1-4.7-8.4l-0.6-5.4
	c-4.2,5.5-9.6,10-15.8,13C497.7,252.7,490.8,254.3,483.9,254.3z M491,236c4.1,0,8.2-0.7,12-2.2c3.4-1.2,6.4-3.3,8.8-6
	c2.7-2.1,4.1-4.5,4.1-7.1v-11.2c-3.1-1.2-6.4-2.1-9.7-2.7c-3.3-0.7-6.7-1-10.1-1c-6.5,0-11.7,1.5-15.8,4.4
	c-4.1,2.9-6.1,6.6-6.1,11.1c-0.1,4.1,1.7,7.9,4.8,10.5C482.4,234.6,486.6,236.1,491,236L491,236z"/>
<path class="st7" d="M630.8,252.3l-28.3-42.3l-13.4,13.2v29h-24.9V116.5h24.9V199l39.1-43.9h26.6l-36.3,41.3l38.9,56.1L630.8,252.3z
	"/>
<path class="st6" d="M708.3,254.3c-7.3,0.1-14.5-1.3-21.2-4c-12.2-5-21.8-14.7-26.5-26.9c-2.4-6.1-3.7-12.6-3.6-19.2
	c0-6.7,1.2-13.4,3.5-19.6c2.3-6,5.8-11.5,10.2-16.2c4.6-4.8,10.2-8.5,16.3-11.1c6.8-2.8,14.1-4.2,21.5-4.1
	c7.3-0.1,14.6,1.3,21.3,4.1c6,2.6,11.5,6.3,16,11c4.4,4.6,7.8,10,10.1,16c2.3,6.1,3.5,12.5,3.5,19c0,1.6,0,3.2-0.1,4.7
	c0,1.3-0.2,2.5-0.5,3.7h-75.4c0.3,3.6,1.2,7,2.8,10.2c2.8,5.8,7.8,10.2,13.8,12.5c3,1.1,6.1,1.7,9.3,1.7c4.9,0,9.8-1.2,14.1-3.6
	c4.1-2,7.3-5.4,9.1-9.6l21.4,6c-3.8,7.7-9.8,14.1-17.2,18.4C728.6,251.9,719.2,254.3,708.3,254.3z M733.7,195.4
	c-0.6-7.3-3.3-13.2-8.1-17.6c-9.8-9-24.8-9-34.5,0.1c-2.3,2.2-4.1,4.8-5.5,7.6c-1.5,3.1-2.3,6.5-2.5,9.9L733.7,195.4z"/>
<path class="st6" d="M885.4,247.4c-4,1.7-8.1,3.2-12.3,4.5c-4.9,1.5-10.1,2.3-15.3,2.2c-3.3,0-6.6-0.4-9.8-1.3
	c-2.9-0.8-5.7-2.2-8-4.2c-2.4-2-4.3-4.6-5.5-7.4c-1.5-3.5-2.2-7.3-2-11.1v-56h-12.8v-19.2h12.8v-31.7h24.9v31.7H878V174h-20.5v47.7
	c0,3.5,0.9,5.9,2.7,7.4c1.9,1.5,4.2,2.2,6.6,2.1c2.6,0,5.2-0.4,7.6-1.3c2.5-0.9,4.5-1.6,6-2.2L885.4,247.4z"/>
<path class="st5" d="M779.7,285c-0.4,0-0.9-0.1-1.3-0.2c-0.5-0.1-0.9-0.3-1.3-0.6c-0.4-0.2-0.8-0.5-1.1-0.8c-0.3-0.3-0.6-0.7-0.8-1
	v2.4h-0.4v-16.3h0.4v7.4c0.6-0.8,1.3-1.5,2-2.1c0.8-0.5,1.7-0.8,2.7-0.8c0.8,0,1.6,0.2,2.3,0.5c0.7,0.3,1.2,0.8,1.7,1.4
	c0.5,0.6,0.8,1.2,1.1,1.9c0.2,0.7,0.4,1.4,0.4,2.1c0,0.8-0.1,1.5-0.4,2.3c-0.3,0.7-0.7,1.4-1.2,1.9c-0.5,0.5-1.1,1-1.8,1.3
	C781.2,284.9,780.5,285,779.7,285z M779.7,284.6c0.7,0,1.4-0.2,2.1-0.5c0.6-0.3,1.2-0.8,1.6-1.3c0.5-0.5,0.8-1.1,1.1-1.8
	c0.2-0.6,0.4-1.3,0.4-2c0-0.7-0.1-1.4-0.4-2.1c-0.2-0.6-0.6-1.3-1-1.8c-0.4-0.5-1-1-1.6-1.3c-1.1-0.6-2.4-0.6-3.6-0.2
	c-0.5,0.2-0.9,0.4-1.3,0.8c-0.4,0.3-0.8,0.7-1.1,1.1c-0.3,0.4-0.6,0.8-0.8,1.3v4.2c0,0.5,0.2,0.9,0.5,1.3c0.3,0.4,0.7,0.8,1.1,1.1
	c0.4,0.3,0.9,0.6,1.5,0.8C778.7,284.4,779.2,284.5,779.7,284.6L779.7,284.6z"/>
<path class="st5" d="M788.8,289.4c0.2,0,0.4,0,0.7,0c0.2,0,0.3-0.1,0.4-0.2c0.1-0.1,0.1-0.2,0.2-0.3l0.3-0.6l0.6-1.3l0.9-2.1
	l-5.4-11.6h0.5l5.1,11l4.9-11h0.5l-6.9,15.7c-0.1,0.3-0.4,0.6-0.7,0.7c-0.3,0.1-0.6,0.1-0.9,0.1L788.8,289.4z"/>
<path class="st5" d="M805.3,284.8V269h0.4v10.3l10.1-10.3h0.6l-6.8,6.9l7.1,8.9h-0.6l-6.8-8.6l-3.6,3.7v4.9H805.3z"/>
<path class="st5" d="M823,285c-0.7,0-1.5-0.2-2.1-0.5c-0.7-0.3-1.3-0.8-1.8-1.3c-1.6-1.8-2-4.3-1.2-6.5c0.3-0.7,0.7-1.3,1.2-1.9
	c0.5-0.5,1.1-1,1.8-1.3c1.3-0.6,2.9-0.6,4.2,0c0.7,0.3,1.3,0.8,1.8,1.3c0.5,0.6,0.9,1.2,1.2,1.9c0.3,0.7,0.4,1.5,0.4,2.3
	c0,1.6-0.6,3.1-1.6,4.2c-0.5,0.5-1.1,1-1.8,1.3C824.4,284.9,823.7,285.1,823,285z M817.9,279.1c0,0.7,0.1,1.5,0.4,2.1
	c0.3,0.6,0.6,1.2,1.1,1.8c0.4,0.5,1,0.9,1.6,1.2c0.6,0.3,1.3,0.4,2,0.4c0.7,0,1.3-0.1,2-0.4c0.6-0.3,1.2-0.7,1.6-1.2
	c0.5-0.5,0.8-1.1,1.1-1.8c0.5-1.4,0.5-2.9,0-4.3c-0.3-0.6-0.6-1.2-1.1-1.8c-0.5-0.5-1-0.9-1.6-1.2c-1.2-0.6-2.7-0.6-3.9,0
	c-0.6,0.3-1.2,0.7-1.6,1.2c-0.5,0.5-0.8,1.1-1.1,1.8C818,277.6,817.9,278.4,817.9,279.1L817.9,279.1z"/>
<path class="st5" d="M840.4,284.8H840v-6.5c0.1-1.3-0.2-2.6-0.7-3.7c-0.5-0.8-1.4-1.2-2.3-1.2c-0.6,0-1.1,0.1-1.7,0.3
	c-0.5,0.2-1,0.5-1.5,0.8c-0.5,0.4-0.9,0.8-1.2,1.3c-0.3,0.5-0.6,1-0.8,1.6v7.3h-0.4v-11.6h0.4v3c0.2-0.5,0.6-0.9,0.9-1.3
	c0.4-0.4,0.8-0.7,1.2-1c0.4-0.3,0.9-0.5,1.4-0.6c0.5-0.2,1-0.2,1.5-0.2c1-0.1,2,0.4,2.6,1.3c0.6,1.2,0.9,2.6,0.8,4V284.8z"/>
<path class="st5" d="M848.7,285c-0.7,0-1.5-0.2-2.2-0.5c-0.7-0.3-1.3-0.8-1.8-1.3c-0.5-0.6-0.9-1.2-1.2-1.9c-0.6-1.5-0.6-3.2,0-4.7
	c0.3-0.7,0.7-1.3,1.2-1.9c0.5-0.5,1.1-1,1.7-1.3c0.7-0.3,1.4-0.5,2.1-0.5c0.8,0,1.5,0.2,2.2,0.5c0.7,0.3,1.3,0.8,1.8,1.3
	c1.1,1.2,1.7,2.7,1.6,4.2v0.2h-10.6c0.1,0.7,0.2,1.4,0.5,2.1c0.3,0.6,0.7,1.2,1.1,1.7c0.5,0.5,1,0.9,1.6,1.1
	c0.6,0.3,1.2,0.4,1.9,0.4c0.4,0,0.9-0.1,1.3-0.2c0.4-0.1,0.8-0.3,1.2-0.5c0.4-0.2,0.7-0.5,1-0.8c0.3-0.3,0.5-0.6,0.7-1l0.4,0.1
	c-0.2,0.4-0.4,0.8-0.7,1.1c-0.3,0.3-0.7,0.6-1.1,0.9c-0.4,0.2-0.8,0.4-1.3,0.6C849.8,285,849.3,285,848.7,285z M853.8,278.8
	c0-0.7-0.2-1.5-0.5-2.1c-0.3-0.6-0.6-1.2-1.1-1.7c-0.4-0.5-1-0.8-1.6-1.1c-1.2-0.5-2.7-0.5-3.9,0c-0.6,0.3-1.1,0.6-1.6,1.1
	c-0.5,0.5-0.8,1.1-1.1,1.7c-0.3,0.7-0.4,1.4-0.5,2.1L853.8,278.8z"/>
<path class="st5" d="M856,279c0-0.8,0.1-1.6,0.4-2.3c0.5-1.4,1.6-2.5,3-3.1c0.7-0.3,1.4-0.5,2.2-0.5c0.9,0,1.8,0.2,2.6,0.7
	c0.8,0.4,1.4,1.1,1.7,1.9l-0.4,0.2c-0.4-0.7-1-1.3-1.6-1.7c-0.7-0.4-1.5-0.6-2.3-0.6c-0.7,0-1.4,0.1-2,0.4c-0.6,0.3-1.2,0.7-1.6,1.2
	c-0.5,0.5-0.8,1.1-1.1,1.7c-0.5,1.4-0.5,2.9,0,4.3c0.3,0.7,0.6,1.3,1.1,1.8c0.5,0.5,1,0.9,1.6,1.2c0.6,0.3,1.3,0.4,2,0.4
	c0.4,0,0.9-0.1,1.3-0.2c0.5-0.1,0.9-0.3,1.3-0.5c0.4-0.2,0.7-0.5,1-0.8c0.2-0.3,0.4-0.6,0.5-0.9l0.4,0.1c-0.1,0.4-0.4,0.8-0.6,1.1
	c-0.3,0.3-0.6,0.6-1,0.9c-0.4,0.2-0.8,0.4-1.3,0.6c-0.5,0.1-1,0.2-1.5,0.2c-0.7,0-1.5-0.2-2.2-0.5c-0.7-0.3-1.3-0.8-1.8-1.3
	c-0.5-0.6-0.9-1.2-1.2-1.9C856.2,280.6,856,279.8,856,279z"/>
<path class="st5" d="M873.4,284.3c-0.2,0.1-0.4,0.2-0.6,0.3c-0.2,0.1-0.4,0.2-0.7,0.2c-0.3,0.1-0.6,0.1-0.8,0.1
	c-0.5,0-1-0.2-1.4-0.5c-0.4-0.3-0.6-0.8-0.6-1.3v-9.5h-1.7v-0.4h1.7v-4h0.4v4h2.8v0.4h-2.8v9.5c0,0.4,0.2,0.8,0.5,1
	c0.3,0.2,0.7,0.4,1.1,0.4c0.2,0,0.5,0,0.7-0.1c0.2,0,0.4-0.1,0.6-0.2c0.1-0.1,0.3-0.1,0.4-0.2l0.2-0.1L873.4,284.3z"/>
<path class="st5" d="M879.9,285c-0.7,0-1.5-0.2-2.1-0.5c-0.7-0.3-1.3-0.8-1.8-1.3c-1.6-1.8-2-4.3-1.2-6.5c0.3-0.7,0.7-1.3,1.2-1.9
	c0.5-0.5,1.1-1,1.8-1.3c1.3-0.6,2.9-0.6,4.2,0c0.7,0.3,1.3,0.8,1.8,1.3c0.5,0.6,0.9,1.2,1.2,1.9c0.3,0.7,0.4,1.5,0.4,2.3
	c0,1.6-0.6,3.1-1.6,4.2c-0.5,0.5-1.1,1-1.8,1.3C881.4,284.9,880.6,285.1,879.9,285z M874.8,279.1c0,0.7,0.1,1.5,0.4,2.1
	c0.3,0.6,0.6,1.2,1.1,1.8c0.4,0.5,1,0.9,1.6,1.2c0.6,0.3,1.3,0.4,2,0.4c0.7,0,1.3-0.1,2-0.4c0.6-0.3,1.2-0.7,1.6-1.2
	c0.5-0.5,0.8-1.1,1.1-1.8c0.5-1.4,0.5-2.9,0-4.3c-0.3-0.6-0.6-1.2-1.1-1.8c-0.5-0.5-1-0.9-1.6-1.2c-1.2-0.6-2.7-0.6-3.9,0
	c-0.6,0.3-1.2,0.7-1.6,1.2c-0.5,0.5-0.8,1.1-1.1,1.8C875,277.6,874.8,278.4,874.8,279.1L874.8,279.1z"/>
<rect x="776.1" y="244.4" class="st5" width="25.7" height="8"/>
<rect x="776.1" y="228.4" class="st5" width="25.7" height="8"/>
<rect x="776.1" y="212.4" class="st5" width="25.7" height="8"/>
<rect x="776.1" y="196.4" class="st5" width="25.7" height="8"/>
<rect x="776.1" y="180.4" class="st5" width="25.7" height="8"/>
<rect x="776.1" y="164.4" class="st5" width="25.7" height="8"/>
<rect x="776.1" y="148.4" class="st5" width="25.7" height="8"/>
<rect x="776.1" y="132.5" class="st5" width="25.7" height="8"/>
<rect x="776.1" y="116.5" class="st5" width="25.7" height="8"/>
</svg>
