<?xml version="1.0" encoding="utf-8"?>
<!-- Generator: Adobe Illustrator 22.0.1, SVG Export Plug-In . SVG Version: 6.00 Build 0)  -->
<svg version="1.1" id="Layer_1" xmlns="http://www.w3.org/2000/svg" xmlns:xlink="http://www.w3.org/1999/xlink" x="0px" y="0px"
	 viewBox="0 0 150 100" style="enable-background:new 0 0 150 100;" xml:space="preserve">
<style type="text/css">
	.st0{fill:#535AB2;}
</style>
<path class="st0" d="M25,10.8v78.5l58.4,10.2V0.5L25,10.8z M67.7,37.5l-10,0.4v29.9l-7-0.5V38.2l-10.4,0.4v-6.1l27.4-1.6V37.5z"/>
<path class="st0" d="M106.9,46.5H125V65c0,0,0.4,8.6-11.7,8.6h-6.4C106.9,73.7,106.9,46.5,106.9,46.5z"/>
<circle class="st0" cx="116" cy="31.8" r="9"/>
<path class="st0" d="M86.7,41.1h17v31c0,0,0.4,8-9,9c-0.4,0-0.7,0-1.1,0.1c-1.2,0-2.4-0.1-3.6-0.3l-3.3-0.5V41.1z"/>
<path class="st0" d="M92.6,16.9c-2.3,0-4.3,0.8-5.9,2.1v13.8c1.6,1.3,3.6,2.1,5.9,2.1c5.1,0,9-4.1,9-9S97.6,16.9,92.6,16.9z"/>
</svg>
