<?xml version="1.0" encoding="utf-8"?>
<!-- Generator: Adobe Illustrator 21.1.0, SVG Export Plug-In . SVG Version: 6.00 Build 0)  -->
<svg version="1.1" id="Layer_1" xmlns="http://www.w3.org/2000/svg" xmlns:xlink="http://www.w3.org/1999/xlink" x="0px" y="0px"
	 viewBox="0 0 1920 1080" style="enable-background:new 0 0 1920 1080;" xml:space="preserve">
<style type="text/css">
	.st0{fill:#75B3BB;stroke:#75B3BB;stroke-width:1.8644;}
	.st1{fill:#52A7C4;stroke:#52A7C4;stroke-width:1.8644;}
	.st2{fill:#48A4C7;stroke:#48A4C7;stroke-width:1.8644;}
	.st3{fill:#72B5BE;stroke:#72B5BE;stroke-width:1.8644;}
	.st4{fill:#66AFC0;stroke:#66AFC0;stroke-width:1.8644;}
	.st5{fill:#80B9BF;stroke:#80B9BF;stroke-width:1.8644;}
	.st6{fill:#63B1C2;stroke:#63B1C2;stroke-width:1.8644;}
	.st7{fill:#59AEC4;stroke:#59AEC4;stroke-width:1.8644;}
	.st8{fill:#4DAACB;stroke:#4DAACB;stroke-width:1.8644;}
	.st9{fill:#45A8CD;stroke:#45A8CD;stroke-width:1.8644;}
	.st10{fill:#83BEC2;stroke:#83BEC2;stroke-width:1.8644;}
	.st11{fill:#89C0C4;stroke:#89C0C4;stroke-width:1.8644;}
	.st12{fill:#6EB8C3;stroke:#6EB8C3;stroke-width:1.8644;}
	.st13{fill:#74C0C6;stroke:#74C0C6;stroke-width:1.8644;}
	.st14{fill:#6CBBC6;stroke:#6CBBC6;stroke-width:1.8644;}
	.st15{fill:#62B8C8;stroke:#62B8C8;stroke-width:1.8644;}
	.st16{fill:#5BB2C8;stroke:#5BB2C8;stroke-width:1.8644;}
	.st17{fill:#77BBC0;stroke:#77BBC0;stroke-width:1.8644;}
	.st18{fill:#7EBEC0;stroke:#7EBEC0;stroke-width:1.8644;}
	.st19{fill:#58B2CA;stroke:#58B2CA;stroke-width:1.8644;}
	.st20{fill:#4EB0D0;stroke:#4EB0D0;stroke-width:1.8644;}
	.st21{fill:#8CC5C7;stroke:#8CC5C7;stroke-width:1.8644;}
	.st22{fill:#83C4C4;stroke:#83C4C4;stroke-width:1.8644;}
	.st23{fill:#8CC8C8;stroke:#8CC8C8;stroke-width:1.8644;}
	.st24{fill:#7FC5C5;stroke:#7FC5C5;stroke-width:1.8644;}
	.st25{fill:#58B4CD;stroke:#58B4CD;stroke-width:1.8644;}
	.st26{fill:#4CB0D2;stroke:#4CB0D2;stroke-width:1.8644;}
	.st27{fill:#66BECB;stroke:#66BECB;stroke-width:1.8644;}
	.st28{fill:#5BB8CF;stroke:#5BB8CF;stroke-width:1.8644;}
	.st29{fill:#63BDCD;stroke:#63BDCD;stroke-width:1.8644;}
	.st30{fill:#8ACCC3;stroke:#8ACCC3;stroke-width:1.8644;}
	.st31{fill:#94CFCA;stroke:#94CFCA;stroke-width:1.8644;}
	.st32{fill:#77C4C8;stroke:#77C4C8;stroke-width:1.8644;}
	.st33{fill:#82C9C4;stroke:#82C9C4;stroke-width:1.8644;}
	.st34{fill:#74C4C8;stroke:#74C4C8;stroke-width:1.8644;}
	.st35{fill:#57B7D1;stroke:#57B7D1;stroke-width:1.8644;}
	.st36{fill:#92CFC6;stroke:#92CFC6;stroke-width:1.8644;}
	.st37{fill:#57B6D1;stroke:#57B6D1;stroke-width:1.8644;}
	.st38{fill:#98D3C6;stroke:#98D3C6;stroke-width:1.8644;}
	.st39{fill:#5CB9CF;stroke:#5CB9CF;stroke-width:1.8644;}
	.st40{fill:#6BC1CB;stroke:#6BC1CB;stroke-width:1.8644;}
	.st41{fill:#73C6C8;stroke:#73C6C8;stroke-width:1.8644;}
	.st42{fill:#79C8C6;stroke:#79C8C6;stroke-width:1.8644;}
	.st43{fill:#67BFCC;stroke:#67BFCC;stroke-width:1.8644;}
	.st44{fill:#82CCC3;stroke:#82CCC3;stroke-width:1.8644;}
	.st45{fill:#8ED0C1;stroke:#8ED0C1;stroke-width:1.8644;}
	.st46{fill:#97D3C3;stroke:#97D3C3;stroke-width:1.8644;}
	.st47{fill:#58B3CC;stroke:#58B3CC;stroke-width:1.8644;}
	.st48{fill:#8DD0BF;stroke:#8DD0BF;stroke-width:1.8644;}
	.st49{fill:#5AB2C9;stroke:#5AB2C9;stroke-width:1.8644;}
	.st50{fill:#66BAC8;stroke:#66BAC8;stroke-width:1.8644;}
	.st51{fill:#63BACB;stroke:#63BACB;stroke-width:1.8644;}
	.st52{fill:#9FD8C3;stroke:#9FD8C3;stroke-width:1.8644;}
	.st53{fill:#89D0C0;stroke:#89D0C0;stroke-width:1.8644;}
	.st54{fill:#91D4BD;stroke:#91D4BD;stroke-width:1.8644;}
	.st55{fill:#99D7BD;stroke:#99D7BD;stroke-width:1.8644;}
	.st56{fill:#80CEC3;stroke:#80CEC3;stroke-width:1.8644;}
	.st57{fill:#79CAC5;stroke:#79CAC5;stroke-width:1.8644;}
	.st58{fill:#9FD9C0;stroke:#9FD9C0;stroke-width:1.8644;}
	.st59{fill:#75C7C7;stroke:#75C7C7;stroke-width:1.8644;}
	.st60{fill:#6EBFC8;stroke:#6EBFC8;stroke-width:1.8644;}
	.st61{fill:#74C3C9;stroke:#74C3C9;stroke-width:1.8644;}
	.st62{fill:#8DD2BF;stroke:#8DD2BF;stroke-width:1.8644;}
	.st63{fill:#9ED8BC;stroke:#9ED8BC;stroke-width:1.8644;}
	.st64{fill:#A4DBBF;stroke:#A4DBBF;stroke-width:1.8644;}
	.st65{fill:#83CCC3;stroke:#83CCC3;stroke-width:1.8644;}
	.st66{fill:#8BD1BF;stroke:#8BD1BF;stroke-width:1.8644;}
	.st67{fill:#A8DDBE;stroke:#A8DDBE;stroke-width:1.8644;}
	.st68{fill:#9ED9B9;stroke:#9ED9B9;stroke-width:1.8644;}
	.st69{fill:#99D6BB;stroke:#99D6BB;stroke-width:1.8644;}
	.st70{fill:#81C8C4;stroke:#81C8C4;stroke-width:1.8644;}
	.st71{fill:#85CCC2;stroke:#85CCC2;stroke-width:1.8644;}
	.st72{fill:#A6DCBA;stroke:#A6DCBA;stroke-width:1.8644;}
	.st73{fill:#7AC4C6;stroke:#7AC4C6;stroke-width:1.8644;}
	.st74{fill:#A9DDB8;stroke:#A9DDB8;stroke-width:1.8644;}
	.st75{fill:#92D4BD;stroke:#92D4BD;stroke-width:1.8644;}
	.st76{fill:#99D7BB;stroke:#99D7BB;stroke-width:1.8644;}
	.st77{fill:#B2E1B9;stroke:#B2E1B9;stroke-width:1.8644;}
	.st78{fill:#86C9C5;stroke:#86C9C5;stroke-width:1.8644;}
	.st79{fill:#9FD9BB;stroke:#9FD9BB;stroke-width:1.8644;}
	.st80{fill:#A7DCB8;stroke:#A7DCB8;stroke-width:1.8644;}
	.st81{fill:#8FCFC2;stroke:#8FCFC2;stroke-width:1.8644;}
	.st82{fill:#8BCCC5;stroke:#8BCCC5;stroke-width:1.8644;}
	.st83{fill:#B8E3BC;stroke:#B8E3BC;stroke-width:1.8644;}
	.st84{fill:#B6E3BB;stroke:#B6E3BB;stroke-width:1.8644;}
	.st85{fill:#9DD8BE;stroke:#9DD8BE;stroke-width:1.8644;}
	.st86{fill:#96D3C2;stroke:#96D3C2;stroke-width:1.8644;}
	.st87{fill:#AFE0B7;stroke:#AFE0B7;stroke-width:1.8644;}
	.st88{fill:#97D3C5;stroke:#97D3C5;stroke-width:1.8644;}
	.st89{fill:#9BD6C4;stroke:#9BD6C4;stroke-width:1.8644;}
	.st90{fill:#AEDFBB;stroke:#AEDFBB;stroke-width:1.8644;}
	.st91{fill:#A6DBBE;stroke:#A6DBBE;stroke-width:1.8644;}
	.st92{fill:#BDE6BE;stroke:#BDE6BE;stroke-width:1.8644;}
	.st93{fill:#B5E2BA;stroke:#B5E2BA;stroke-width:1.8644;}
	.st94{fill:#8ECCC9;stroke:#8ECCC9;stroke-width:1.8644;}
	.st95{fill:#BDE5BE;stroke:#BDE5BE;stroke-width:1.8644;}
	.st96{fill:#91CEC9;stroke:#91CEC9;stroke-width:1.8644;}
	.st97{fill:#A3DAC0;stroke:#A3DAC0;stroke-width:1.8644;}
	.st98{fill:#A9DDC2;stroke:#A9DDC2;stroke-width:1.8644;}
	.st99{fill:#B2E0C1;stroke:#B2E0C1;stroke-width:1.8644;}
	.st100{fill:#B7E3BC;stroke:#B7E3BC;stroke-width:1.8644;}
	.st101{fill:#9DD5C7;stroke:#9DD5C7;stroke-width:1.8644;}
	.st102{fill:#94CECC;stroke:#94CECC;stroke-width:1.8644;}
	.st103{fill:#9BD2CA;stroke:#9BD2CA;stroke-width:1.8644;}
	.st104{fill:#A5DAC6;stroke:#A5DAC6;stroke-width:1.8644;}
	.st105{fill:#BFE6BF;stroke:#BFE6BF;stroke-width:1.8644;}
	.st106{fill:#9ED3CE;stroke:#9ED3CE;stroke-width:1.8644;}
	.st107{fill:#B7E3C4;stroke:#B7E3C4;stroke-width:1.8644;}
	.st108{fill:#A7DBCA;stroke:#A7DBCA;stroke-width:1.8644;}
	.st109{fill:#C1E7C1;stroke:#C1E7C1;stroke-width:1.8644;}
	.st110{fill:#A5D8CD;stroke:#A5D8CD;stroke-width:1.8644;}
	.st111{fill:#BEE6C2;stroke:#BEE6C2;stroke-width:1.8644;}
	.st112{fill:#B1E0C8;stroke:#B1E0C8;stroke-width:1.8644;}
	.st113{fill:#B1E0CB;stroke:#B1E0CB;stroke-width:1.8644;}
	.st114{fill:#C9E7C1;stroke:#C1E7C1;stroke-width:1.8644;}
	.st115{fill:#54B1CB;}
	.st116{fill:#A5D8C4;stroke:#A5D8CD;stroke-width:1.8644;}
	.st117{opacity:0.85;}
	.st118{fill:#FFFFFF;}
</style>
<g>
	<g>
		<path class="st0" d="M1690.3,311.6l167.9,149.4l4.9-208.7L1690.3,311.6z"/>
		<path class="st1" d="M1839.7,572.1l-156.8,98.8l237.1,53.1L1839.7,572.1z"/>
		<path class="st2" d="M1682.9,670.8l102.4,180.3L1919.9,724L1682.9,670.8z"/>
		<path class="st3" d="M1690.3,311.6l-4.9,107.4l172.8,42L1690.3,311.6z"/>
		<path class="st4" d="M1685.4,419l154.3,153.1l18.5-111.1L1685.4,419z"/>
		<path class="st5" d="M1716.3,142.4l-25.9,169.1l172.8-59.3L1716.3,142.4z"/>
		<path class="st6" d="M1685.4,419l-3.7,167.9l158-14.8L1685.4,419z"/>
		<path class="st7" d="M1681.7,586.9l1.2,84l156.8-98.8L1681.7,586.9z"/>
		<path class="st8" d="M1682.9,670.8l-116,37.1l218.4,143.2L1682.9,670.8z"/>
		<path class="st9" d="M1566.8,707.9l-22.2,188.9l240.8-45.7L1566.8,707.9z"/>
		<path class="st10" d="M1610,236.3l80.3,75.4l25.9-169.1L1610,236.3z"/>
		<path class="st11" d="M1642.2,136.3L1610,236.3l106.1-93.9L1642.2,136.3z"/>
		<path class="st12" d="M1563.1,385.7l118.5,201.3l3.7-167.9L1563.1,385.7z"/>
		<path class="st13" d="M1484.1,439.9l-13.6,85.2l92.7-139.5L1484.1,439.9z"/>
		<path class="st14" d="M1563.1,385.7l-92.7,139.5l211.1,61.8L1563.1,385.7z"/>
		<path class="st15" d="M1470.5,525.2l80.3,96.4l130.8-34.6L1470.5,525.2z"/>
		<path class="st16" d="M1681.7,586.9l-130.8,34.6l132.1,49.4L1681.7,586.9z"/>
		<path class="st17" d="M1563.1,385.7l122.2,33.4l4.9-107.4L1563.1,385.7z"/>
		<path class="st18" d="M1610,236.3l-46.9,149.4l127.1-74.1L1610,236.3z"/>
		<path class="st19" d="M1550.8,621.5l16.1,86.5l116-37.1L1550.8,621.5z"/>
		<path class="st20" d="M1474.3,761l70.4,135.8l22.2-188.9L1474.3,761z"/>
		<path class="st21" d="M1482.9,102.9L1610,236.2l32.1-100.1L1482.9,102.9z"/>
		<path class="st22" d="M1398.9,249.8l164.2,135.9l46.9-149.4L1398.9,249.8z"/>
		<path class="st23" d="M1482.9,102.9l-84,146.9l211.1-13.6L1482.9,102.9z"/>
		<path class="st24" d="M1398.9,249.8l85.2,190.1l79.1-54.4L1398.9,249.8z"/>
		<path class="st25" d="M1550.8,621.5L1474.3,761l92.7-53.1L1550.8,621.5z"/>
		<path class="st26" d="M1474.3,761l-91.4,69.2l161.7,66.7L1474.3,761z"/>
		<path class="st27" d="M1470.5,525.2l-125.9,65.5l206.2,30.9L1470.5,525.2z"/>
		<path class="st28" d="M1342.2,701.7l132.1,59.3l76.6-139.5L1342.2,701.7z"/>
		<path class="st29" d="M1344.7,590.7l-2.5,111.1l208.7-80.3L1344.7,590.7z"/>
		<path class="st30" d="M1301.4,278.2l-23.5,119.7l121-148.1L1301.4,278.2z"/>
		<path class="st31" d="M1280.4,89.3l118.5,160.5l84-146.9L1280.4,89.3z"/>
		<path class="st32" d="M1277.9,398l192.6,127.1l13.6-85.2L1277.9,398z"/>
		<path class="st33" d="M1398.9,249.8l-121,148.1l206.2,42L1398.9,249.8z"/>
		<path class="st34" d="M1277.9,398l66.7,192.6l125.9-65.5L1277.9,398z"/>
		<path class="st35" d="M1342.2,701.7l40.8,128.4l91.4-69.2L1342.2,701.7z"/>
		<path class="st36" d="M1280.4,89.3l21,188.9l97.6-28.4L1280.4,89.3z"/>
		<path class="st37" d="M1342.2,701.7l-35.8,171.6l76.6-43.2L1342.2,701.7z"/>
		<path class="st38" d="M1280.4,89.3l-96.4,42l117.4,146.9L1280.4,89.3z"/>
		<path class="st39" d="M1171.7,811.7l134.5,61.8l35.8-171.6L1171.7,811.7z"/>
		<path class="st40" d="M1103.9,663.4l238.3,38.3l2.5-111.1L1103.9,663.4z"/>
		<path class="st41" d="M1129.8,547.4l-25.9,116l240.8-72.9L1129.8,547.4z"/>
		<path class="st42" d="M1277.9,398l-148.1,149.4l214.8,43.2L1277.9,398z"/>
		<path class="st43" d="M1103.9,663.4l67.9,148.1l170.4-109.8L1103.9,663.4z"/>
		<path class="st44" d="M1111.3,424l18.5,123.4L1277.9,398L1111.3,424z"/>
		<path class="st45" d="M1117.5,233.9L1277.9,398l23.5-119.7L1117.5,233.9z"/>
		<path class="st46" d="M1184.1,131.3l-66.7,102.4l184,44.5L1184.1,131.3z"/>
		<path class="st47" d="M1171.7,811.7l90.2,167.9l44.5-106.1L1171.7,811.7z"/>
		<path class="st48" d="M1117.5,233.9l-6.2,190.1l166.7-25.9L1117.5,233.9z"/>
		<path class="st49" d="M1171.7,811.7l-48.2,181.5l138.2-13.6L1171.7,811.7z"/>
		<path class="st50" d="M1048.3,758.5L944.6,912.9l179,80.3L1048.3,758.5z"/>
		<path class="st51" d="M1048.3,758.5l75.4,234.6l48.2-181.5L1048.3,758.5z"/>
		<path class="st40" d="M1103.9,663.4l-55.6,95.1l123.4,53.1L1103.9,663.4z"/>
		<path class="st52" d="M992.7,142.4l124.7,91.4l66.7-102.4L992.7,142.4z"/>
		<path class="st53" d="M975.4,393.1L989,594.4L1111.2,424L975.4,393.1z"/>
		<path class="st54" d="M975.4,393.1l135.8,30.9l6.2-190.1L975.4,393.1z"/>
		<path class="st55" d="M980.3,235.1l-4.9,158l142-159.3L980.3,235.1z"/>
		<path class="st56" d="M1111.3,424L989,594.4l140.7-46.9L1111.3,424z"/>
		<path class="st57" d="M989,594.4l114.8,69.2l25.9-116L989,594.4z"/>
		<path class="st58" d="M992.7,142.4l-12.4,92.7l137-1.2L992.7,142.4z"/>
		<path class="st59" d="M989,594.4l59.3,164.2l55.6-95.1L989,594.4z"/>
		<path class="st60" d="M902.6,877l42,35.8l103.7-154.3L902.6,877z"/>
		<path class="st61" d="M866.8,733.8L902.6,877l145.7-118.5L866.8,733.8z"/>
		<path class="st42" d="M989,594.4L866.8,733.8l181.5,24.7L989,594.4z"/>
		<path class="st62" d="M975.4,393.1L826,463.5l163,130.8L975.4,393.1z"/>
		<path class="st63" d="M895.2,230.1l80.3,163l4.9-158L895.2,230.1z"/>
		<path class="st64" d="M895.2,230.1l85.2,4.9l12.4-92.7L895.2,230.1z"/>
		<path class="st65" d="M801.3,578.3l65.5,155.5L989,594.4L801.3,578.3z"/>
		<path class="st66" d="M826,463.4l-24.7,114.8L989,594.2L826,463.4z"/>
		<path class="st67" d="M819.8,183.2l75.4,46.9l97.6-87.7L819.8,183.2z"/>
		<path class="st68" d="M895.2,230.1L753.2,382l222.3,11.1L895.2,230.1z"/>
		<path class="st69" d="M753.2,382l72.9,81.5l149.4-70.4L753.2,382z"/>
		<path class="st70" d="M748.3,715.3L690.2,861l176.5-127.1L748.3,715.3z"/>
		<path class="st71" d="M801.3,578.3l-53.1,137l118.6,18.5L801.3,578.3z"/>
		<path class="st72" d="M819.8,183.2L753.1,382l142-151.8L819.8,183.2z"/>
		<path class="st73" d="M866.8,733.8L690.2,861L902.6,877L866.8,733.8z"/>
		<path class="st74" d="M644.5,306.6L753.1,382l66.7-198.8L644.5,306.6z"/>
		<path class="st75" d="M649.5,594.4l151.8-16.1L826,463.5L649.5,594.4z"/>
		<path class="st76" d="M753.2,382L649.6,594.4l176.5-130.8L753.2,382z"/>
		<path class="st77" d="M668,86.8l-23.5,219.8l175.3-123.4L668,86.8z"/>
		<path class="st48" d="M649.5,594.4l98.8,121l53.1-137L649.5,594.4z"/>
		<path class="st78" d="M559.4,812.9l130.8,48.2l58.1-145.7L559.4,812.9z"/>
		<path class="st79" d="M539.6,435.1l109.8,159.3L753.1,382L539.6,435.1z"/>
		<path class="st80" d="M644.5,306.6L539.6,435l213.6-53.1L644.5,306.6z"/>
		<path class="st81" d="M649.5,594.4L524.8,756.1l223.5-40.8L649.5,594.4z"/>
		<path class="st82" d="M524.8,756.1l34.6,56.8l188.9-97.6L524.8,756.1z"/>
		<path class="st83" d="M540.9,126.4l103.7,180.3L668,86.8L540.9,126.4z"/>
		<path class="st84" d="M540.9,126.4l-6.2,133.3l109.8,46.9L540.9,126.4z"/>
		<path class="st85" d="M539.6,435.1l-6.2,121l116,38.3L539.6,435.1z"/>
		<path class="st86" d="M533.5,556.1l-8.6,200l124.7-161.7L533.5,556.1z"/>
		<path class="st87" d="M534.7,259.7l4.9,175.3l104.9-128.4L534.7,259.7z"/>
		<path class="st88" d="M437.1,728.9l87.7,27.2l8.6-200L437.1,728.9z"/>
		<path class="st89" d="M412.4,601.8l24.7,127.1l96.4-172.8L412.4,601.8z"/>
		<path class="st90" d="M534.7,259.7L459.3,435h80.3L534.7,259.7z"/>
		<path class="st91" d="M459.3,435.1l74.1,121l6.2-121L459.3,435.1L459.3,435.1z"/>
		<path class="st92" d="M430.9,146.1l103.7,113.5l6.2-133.3L430.9,146.1z"/>
		<path class="st93" d="M395.1,252.3L459.3,435l75.4-175.3L395.1,252.3z"/>
		<path class="st94" d="M524.8,756.1L418.7,864.7l140.7-51.8L524.8,756.1z"/>
		<path class="st95" d="M430.9,146.1l-35.8,106.1l139.5,7.4L430.9,146.1z"/>
		<path class="st96" d="M437.1,728.9l-18.5,135.8l106.1-108.6L437.1,728.9z"/>
		<path class="st97" d="M459.3,435.1l-46.9,166.7l121-45.7L459.3,435.1z"/>
		<path class="st98" d="M223.5,530.1l188.9,71.7l46.9-166.7L223.5,530.1z"/>
		<path class="st99" d="M272.9,367.2l-49.4,163L459.3,435L272.9,367.2z"/>
		<path class="st100" d="M395.1,252.3L272.9,367.2l186.4,67.9L395.1,252.3z"/>
		<path class="st101" d="M412.4,601.8l-129.6,65.4l154.3,61.8L412.4,601.8z"/>
		<path class="st102" d="M282.8,836.4l135.8,28.4L437.1,729L282.8,836.4z"/>
		<path class="st103" d="M282.8,667.1v169.1l154.3-107.4L282.8,667.1z"/>
		<path class="st104" d="M223.5,530.1l59.3,137l129.6-65.4L223.5,530.1z"/>
		<path class="st105" d="M213.6,239.9L272.9,367l122.2-114.8L213.6,239.9z"/>
		<path class="st106" d="M282.8,667.1L85.2,726.4l197.5,109.9V667.1z"/>
		<path class="st107" d="M82.8,368.4l140.7,161.7l49.4-163L82.8,368.4z"/>
		<path class="st108" d="M223.5,530.1L79.1,626.5l203.7,40.7L223.5,530.1z"/>
		<path class="st109" d="M213.6,239.9l-85.2,38.3l144.4,88.9L213.6,239.9z"/>
		<path class="st110" d="M79.1,626.5l6.2,100.1l197.5-59.4L79.1,626.5z"/>
		<path class="st111" d="M128.5,278.2l-45.7,90.2l190.1-1.2L128.5,278.2z"/>
		<path class="st112" d="M82.8,368.4l-3.7,258.1l144.4-96.4L82.8,368.4z"/>
		<path class="st113" d="M0,606.7l79.1,19.8l3.7-258.1L0,606.7z"/>
		<polygon class="st114" points="213.6,239.9 430.9,146.1 395.1,252.3 		"/>
		<polygon class="st115" points="1544.7,896.8 1382.8,830.2 1306.4,873.3 		"/>
		<polygon class="st116" points="0,606.7 85.2,726.4 79.1,626.5 		"/>
	</g>
	<g class="st117">
		<path class="st118" d="M467.3,341.6v42.6c24.7-28.4,53.1-46.3,89.5-46.3c37.1,0,67.3,20.3,82.1,47.5
			c15.4,28.4,15.4,69.2,15.4,88.9v152.5H571V477.4c0-25.3-0.6-41.3-5.5-53.7c-7.4-17.9-25.3-25.9-38.9-25.9
			c-23.5,0-40.1,17.9-59.3,39.5v189.6H384V341.7h83.3V341.6z"/>
		<path class="st118" d="M906.9,538.4c0,13.6,0.7,25.3,12.4,25.3c5.5,0,12.4-3,30.2-14.2v50c-30.2,16.6-54.9,30.9-79.6,30.9
			c-16.1,0-34.6-9.2-42-26.5c-11.7,6.7-46.3,26.5-82.1,26.5c-32.1,0-80.9-17.9-80.9-69.2c0-43.2,29-71.7,82.8-88.9l75.9-24.7
			c0-24.7-0.6-54.9-47.5-54.9c-50.7,0-82.1,35.2-98.2,51.9v-69.2c31.4-28.4,70.4-37.6,113.5-37.6c24,0,67.9,3.7,96.9,36.4
			c18.5,21,18.5,43.2,18.5,62.3L906.9,538.4L906.9,538.4z M823.5,491.5c-29.6,6.7-71.7,21-71.7,53.7c0,18.5,11.7,30.9,27.2,30.9
			c24.7,0,36.4-14.2,44.5-22.2V491.5z"/>
		<path class="st118" d="M1032.9,341.6v20.3c19.8-17.3,44.5-24,70.4-24c56.2,0,136.5,41.3,136.5,147.6c0,90.2-63,145.1-145.7,145.1
			c-33.9,0-51.2-8-61.1-12.9v156.8h-83.3V341.6H1032.9z M1032.9,557.6c9.2,6.2,24,14.8,48.2,14.8c31.4,0,70.4-24.7,70.4-86.5
			c0-52.4-25.9-90.7-67.9-90.7c-20.3,0-35.8,7.4-50.7,20.3V557.6z"/>
		<path class="st118" d="M1329.2,341.6v20.3c19.8-17.3,44.5-24,70.4-24c56.2,0,136.5,41.3,136.5,147.6c0,90.2-63,145.1-145.7,145.1
			c-33.9,0-51.2-8-61.1-12.9v156.8h-83.3V341.6H1329.2z M1329.2,557.6c9.2,6.2,24,14.8,48.2,14.8c31.4,0,70.4-24.7,70.4-86.5
			c0-52.4-25.9-90.7-67.9-90.7c-20.3,0-35.8,7.4-50.7,20.3V557.6z"/>
	</g>
</g>
</svg>
