<?xml version="1.0" encoding="utf-8"?>
<!-- Generator: Adobe Illustrator 22.0.1, SVG Export Plug-In . SVG Version: 6.00 Build 0)  -->
<svg version="1.1"
	 id="svg2" inkscape:version="0.91 r13725" sodipodi:docname="Microsoft_Skype_for_Business_logo.svg" xmlns:cc="http://creativecommons.org/ns#" xmlns:dc="http://purl.org/dc/elements/1.1/" xmlns:inkscape="http://www.inkscape.org/namespaces/inkscape" xmlns:rdf="http://www.w3.org/1999/02/22-rdf-syntax-ns#" xmlns:sodipodi="http://sodipodi.sourceforge.net/DTD/sodipodi-0.dtd" xmlns:svg="http://www.w3.org/2000/svg"
	 xmlns="http://www.w3.org/2000/svg" xmlns:xlink="http://www.w3.org/1999/xlink" x="0px" y="0px" viewBox="0 0 150 100"
	 style="enable-background:new 0 0 150 100;" xml:space="preserve">
<style type="text/css">
	.st0{fill:none;}
	.st1{fill:#00AFF0;}
	.st2{fill:#FFFFFF;}
</style>
<sodipodi:namedview  bordercolor="#666666" borderopacity="1" gridtolerance="10" guidetolerance="10" id="namedview12" inkscape:current-layer="svg2" inkscape:cx="209.46873" inkscape:cy="106.89686" inkscape:pageopacity="0" inkscape:pageshadow="2" inkscape:window-height="1137" inkscape:window-maximized="1" inkscape:window-width="1920" inkscape:window-x="-8" inkscape:window-y="-8" inkscape:zoom="2.085965" objecttolerance="10" pagecolor="#ffffff" showgrid="false">
	</sodipodi:namedview>
<path id="path4" class="st0" d="M25,0h100v100H25V0z"/>
<path id="path6" class="st1" d="M39.8,8.6C47.8,2.9,59,2.4,67.5,7.3c9.5-1.7,19.6-0.1,28.1,4.6c9.5,5.1,17,13.9,20.4,24.1
	c2.4,6.9,2.9,14.4,1.7,21.6c3.1,5.4,4.1,11.8,2.9,17.9c-1.3,6.7-5.4,12.7-11.1,16.5c-7.9,5.3-18.7,5.6-26.9,0.8
	c-9.2,1.6-18.8,0.2-27.1-4c-9.6-4.8-17.3-13.4-21.1-23.5C31.7,58,31,50.1,32.3,42.5c-3.1-5.5-4.1-12.1-2.8-18.2
	C30.8,18,34.6,12.3,39.8,8.6z"/>
<path id="path8" class="st2" d="M44.1,13.7c4.8-3.2,11.2-4,16.6-2.2c2,0.6,3.7,1.7,5.5,2.7c6.9-1.5,14.2-1.3,20.9,1.1
	c10.6,3.7,19.3,12.5,22.8,23.1c2.2,6.5,2.4,13.6,0.9,20.3c1.7,2.8,3.2,5.9,3.5,9.2c0.9,6.3-1.7,12.8-6.5,16.9
	c-4.7,4.1-11.4,5.7-17.5,4.1c-2.4-0.6-4.6-1.8-6.7-3.1c-7.3,1.6-15,1.2-21.9-1.5C51.6,80.4,43.3,71.7,40,61.2
	c-2.1-6.4-2.2-13.4-0.8-20c-2.2-3.5-3.8-7.4-3.7-11.6C35.4,23.3,38.8,17.1,44.1,13.7z"/>
<path id="path10" class="st1" d="M69.3,23.7c6.2-0.9,12.8,0,18.4,3c2.4,1.4,4.8,3.2,5.9,5.8c0.7,1.7,0.8,4-0.5,5.4
	c-1.5,1.5-3.9,2-5.9,1.3c-2.3-1-3.4-3.4-5.4-4.8c-2.4-2-5.7-2.6-8.8-2.5c-2.3,0.1-4.7,0.6-6.3,2.3c-1.5,1.6-2.1,4.4-0.6,6.2
	c1.4,1.6,3.6,2.2,5.5,2.8c3.8,0.9,7.6,1.7,11.4,2.6c3.9,0.9,7.9,2.6,10.5,5.8c4.5,5.8,3.5,15.1-2.1,19.8c-4.5,4-10.7,5.1-16.5,5.1
	c-6.2-0.1-12.8-1.4-17.5-5.6c-2.4-2.1-4.4-5.4-3.7-8.7c0.8-3.3,5.3-4.5,7.9-2.5c2,1.6,3,4,4.9,5.6c2.3,2.1,5.4,2.9,8.4,2.8
	c3,0.1,6.1-0.8,8.1-3.1c1.4-1.5,2.1-3.8,1.2-5.8c-0.7-1.8-2.6-2.8-4.4-3.3c-3.3-0.9-6.7-1.7-10-2.5c-3.7-0.9-7.5-1.7-10.6-3.9
	c-2.5-1.6-4.3-4.2-4.9-7.1c-1-4.5-0.3-9.8,3-13.3C60.5,26,64.9,24.4,69.3,23.7z"/>
</svg>
