<?xml version="1.0" encoding="utf-8"?>
<!-- Generator: Adobe Illustrator 22.0.1, SVG Export Plug-In . SVG Version: 6.00 Build 0)  -->
<svg version="1.1" id="Layer_1" xmlns="http://www.w3.org/2000/svg" xmlns:xlink="http://www.w3.org/1999/xlink" x="0px" y="0px"
	 viewBox="0 0 150 100" style="enable-background:new 0 0 150 100;" xml:space="preserve">
<style type="text/css">
	.st0{fill:#00A1E0;}
	.st1{fill:#FFFFFF;}
</style>
<title>logo-salesforce</title>
<desc>Created with Sketch.</desc>
<g id="Test-B">
	<g id="Mobile-Nav---Test-B-_x28_0_x29_">
		<g id="Group">
			<g id="logo-salesforce">
				<path id="Fill-1" class="st0" d="M63,10.9c4.6-4.8,11-7.8,18.1-7.8c9.5,0,17.6,5.3,22,13.1c3.8-1.7,8-2.6,12.5-2.6
					c17,0,30.8,13.9,30.8,31s-13.8,31-30.8,31c-2.1,0-4.1-0.2-6-0.6c-3.8,6.9-11.2,11.5-19.7,11.5c-3.5,0-6.9-0.8-9.8-2.3
					c-3.9,9.2-13,15.7-23.6,15.7c-11,0-20.5-7-24.1-16.8c-1.6,0.3-3.2,0.5-4.9,0.5c-13.2,0-23.8-10.8-23.8-24.1
					c0-8.9,4.8-16.7,11.9-20.9c-1.5-3.4-2.3-7.1-2.3-11C13.2,12.4,25.7,0,41,0C50,0,58,4.3,63,10.9"/>
				<path id="Combined-Shape" class="st1" d="M24.3,51.9l0.6-1.6c0.1-0.3,0.3-0.2,0.4-0.1c0.2,0.1,0.3,0.2,0.5,0.3
					c1.7,1.1,3.3,1.1,3.8,1.1c1.3,0,2.1-0.7,2.1-1.6v-0.1c0-1-1.2-1.4-2.6-1.8L28.7,48c-1.9-0.5-4-1.4-4-3.8v-0.1c0-2.3,1.9-4,4.6-4
					h0.3c1.6,0,3.1,0.4,4.2,1.2c0.1,0.1,0.2,0.2,0.2,0.3c-0.1,0.2-0.5,1.4-0.6,1.6c-0.1,0.3-0.4,0.1-0.4,0.1c-1-0.5-2.5-0.9-3.7-0.9
					c-1.2,0-1.9,0.6-1.9,1.4V44c0,0.9,1.3,1.4,2.7,1.8l0.3,0.1c1.9,0.6,4,1.4,4,3.8v0.1c0,2.5-1.8,4.1-4.7,4.1c-1.4,0-2.8-0.2-4.3-1
					c-0.3-0.2-0.5-0.3-0.8-0.5C24.3,52.1,24.2,52.1,24.3,51.9z M67.2,51.9l0.6-1.6c0.1-0.3,0.3-0.2,0.4-0.1c0.2,0.1,0.3,0.2,0.5,0.3
					c1.7,1.1,3.3,1.1,3.8,1.1c1.3,0,2.1-0.7,2.1-1.6v-0.1c0-1-1.2-1.4-2.6-1.8L71.6,48c-1.9-0.5-4-1.4-4-3.8v-0.1c0-2.3,1.9-4,4.6-4
					h0.3c1.6,0,3.1,0.4,4.2,1.2c0.1,0.1,0.2,0.2,0.2,0.3c-0.1,0.2-0.5,1.4-0.6,1.6c-0.1,0.3-0.4,0.1-0.4,0.1c-1-0.5-2.5-0.9-3.7-0.9
					c-1.2,0-1.9,0.6-1.9,1.4V44c0,0.9,1.3,1.4,2.7,1.8l0.3,0.1c1.9,0.6,4,1.4,4,3.8v0.1c0,2.5-1.8,4.1-4.7,4.1c-1.4,0-2.8-0.2-4.3-1
					c-0.3-0.2-0.5-0.3-0.8-0.5C67.2,52.1,67.1,52.1,67.2,51.9z M98.9,44.3c0.2,0.8,0.4,1.7,0.4,2.6c0,0.9-0.1,1.8-0.4,2.6
					c-0.2,0.8-0.6,1.5-1.1,2.1c-0.5,0.6-1.2,1.1-1.9,1.4c-0.8,0.3-1.6,0.5-2.6,0.5c-1,0-1.9-0.2-2.6-0.5c-0.8-0.3-1.4-0.8-1.9-1.4
					c-0.5-0.6-0.9-1.3-1.1-2.1c-0.2-0.8-0.4-1.7-0.4-2.6s0.1-1.8,0.4-2.6c0.2-0.8,0.6-1.5,1.1-2.1c0.5-0.6,1.2-1.1,1.9-1.4
					c0.8-0.3,1.6-0.5,2.6-0.5c1,0,1.9,0.2,2.6,0.5c0.8,0.3,1.4,0.8,1.9,1.4C98.3,42.8,98.7,43.5,98.9,44.3z M96.5,46.9
					c0-1.4-0.3-2.5-0.8-3.3c-0.5-0.8-1.3-1.2-2.4-1.2c-1.1,0-1.9,0.4-2.4,1.2c-0.5,0.8-0.8,1.9-0.8,3.3c0,1.4,0.3,2.5,0.8,3.4
					c0.5,0.8,1.3,1.2,2.4,1.2c1.1,0,1.9-0.4,2.4-1.2C96.2,49.5,96.5,48.4,96.5,46.9z M119,51l0.6,1.6c0.1,0.2-0.1,0.3-0.1,0.3
					c-0.9,0.4-2.2,0.6-3.5,0.6c-2.1,0-3.7-0.6-4.8-1.8c-1.1-1.2-1.6-2.9-1.6-4.9c0-0.9,0.1-1.8,0.4-2.6c0.3-0.8,0.7-1.5,1.2-2.1
					c0.5-0.6,1.2-1.1,2-1.4c0.8-0.3,1.7-0.5,2.7-0.5c0.7,0,1.3,0.1,1.8,0.1c0.5,0.1,1.3,0.3,1.6,0.4c0.1,0,0.2,0.1,0.2,0.3
					c-0.2,0.7-0.4,1.1-0.6,1.6c-0.1,0.3-0.3,0.2-0.3,0.2c-0.8-0.3-1.6-0.4-2.6-0.4c-1.2,0-2.1,0.4-2.7,1.2c-0.6,0.8-0.9,1.8-0.9,3.2
					c0,1.5,0.4,2.6,1,3.4c0.7,0.7,1.6,1,2.8,1c0.5,0,0.9-0.1,1.3-0.1c0.4-0.1,0.8-0.2,1.2-0.3C118.7,50.9,118.9,50.8,119,51z
					 M131.5,43.8c0.5,1.9,0.3,3.5,0.2,3.6c0,0.2-0.2,0.2-0.2,0.2h-8.3c0.1,1.3,0.3,2.1,1,2.7c0.6,0.6,1.5,1,2.9,1
					c2,0,2.8-0.4,3.4-0.6c0,0,0.2-0.1,0.3,0.2l0.5,1.5c0.1,0.3,0,0.3-0.1,0.4c-0.5,0.3-1.8,0.8-4.2,0.8c-1.2,0-2.2-0.2-3-0.5
					c-0.8-0.3-1.5-0.8-2.1-1.4c-0.5-0.6-0.9-1.3-1.2-2.1c-0.3-0.8-0.4-1.7-0.4-2.6c0-0.9,0.1-1.8,0.4-2.6c0.2-0.8,0.6-1.5,1.1-2.1
					c0.5-0.6,1.2-1.1,1.9-1.4c0.8-0.4,1.7-0.5,2.7-0.5c0.9,0,1.7,0.2,2.4,0.5c0.5,0.2,1,0.6,1.6,1.2
					C130.8,42.3,131.3,43.1,131.5,43.8z M123.3,45.6h5.9c-0.1-0.8-0.2-1.4-0.5-2c-0.5-0.8-1.2-1.2-2.3-1.2s-1.9,0.4-2.4,1.2
					C123.6,44.1,123.4,44.8,123.3,45.6z M65.2,43.8c0.5,1.9,0.3,3.5,0.3,3.6c0,0.2-0.2,0.2-0.2,0.2h-8.3c0.1,1.3,0.3,2.1,1,2.7
					c0.6,0.6,1.5,1,2.9,1c2,0,2.8-0.4,3.4-0.6c0,0,0.2-0.1,0.3,0.2l0.5,1.5c0.1,0.3,0,0.3-0.1,0.4c-0.5,0.3-1.8,0.8-4.2,0.8
					c-1.2,0-2.2-0.2-3-0.5s-1.5-0.8-2.1-1.4c-0.5-0.6-0.9-1.3-1.2-2.1c-0.3-0.8-0.4-1.7-0.4-2.6c0-0.9,0.1-1.8,0.4-2.6
					c0.2-0.8,0.6-1.5,1.1-2.1c0.5-0.6,1.2-1.1,1.9-1.4c0.8-0.4,1.7-0.5,2.7-0.5c0.9,0,1.7,0.2,2.4,0.5c0.5,0.2,1,0.6,1.6,1.2
					C64.5,42.3,65,43.1,65.2,43.8z M56.9,45.6h5.9c-0.1-0.8-0.2-1.4-0.5-2c-0.5-0.8-1.2-1.2-2.3-1.2c-1.1,0-1.9,0.4-2.4,1.2
					C57.3,44.1,57.1,44.8,56.9,45.6z M42.4,45.2c0,0,0.7,0.1,1.4,0.2V45c0-1.1-0.2-1.6-0.7-2c-0.4-0.3-1.2-0.5-2-0.5
					c0,0-2,0-3.6,0.8c-0.1,0.1-0.1,0.1-0.1,0.1s-0.2,0.1-0.3-0.1l-0.6-1.6c-0.1-0.2,0.1-0.3,0.1-0.3c0.8-0.6,2.5-0.9,2.5-0.9
					c0.6-0.1,1.6-0.2,2.2-0.2c1.6,0,2.9,0.4,3.8,1.2c0.9,0.8,1.3,2,1.3,3.7v7.6c0,0,0,0.2-0.2,0.3c0,0-0.3,0.1-0.6,0.2
					c-0.3,0.1-1.3,0.3-2.1,0.4c-0.8,0.2-1.6,0.2-2.5,0.2c-0.8,0-1.5-0.1-2.2-0.2c-0.7-0.2-1.2-0.4-1.7-0.7c-0.4-0.3-0.8-0.8-1.1-1.3
					c-0.3-0.5-0.4-1.2-0.4-1.9s0.2-1.4,0.4-1.9c0.3-0.5,0.7-1,1.2-1.4c0.5-0.4,1.1-0.6,1.7-0.8c0.7-0.2,1.3-0.3,2-0.3
					C41.6,45.2,42.1,45.2,42.4,45.2z M39.1,51c0,0,0.8,0.6,2.4,0.5c1.2-0.1,2.3-0.3,2.3-0.3v-3.8c0,0-1-0.2-2.3-0.2
					c-1.7,0-2.4,0.6-2.4,0.6c-0.5,0.3-0.7,0.9-0.7,1.6c0,0.4,0.1,0.8,0.3,1.1C38.7,50.7,38.8,50.8,39.1,51z M109.1,40.9
					c-0.1,0.2-0.5,1.4-0.6,1.8c-0.1,0.2-0.2,0.2-0.3,0.2c0,0-0.5-0.1-0.9-0.1c-0.3,0-0.7,0.1-1.1,0.2s-0.7,0.3-1,0.6
					c-0.3,0.3-0.5,0.7-0.7,1.2c-0.2,0.5-0.3,1.3-0.3,2.2v6.2c0,0.2-0.1,0.3-0.3,0.3h-2.2c-0.2,0-0.3-0.1-0.3-0.3V40.8
					c0-0.2,0.1-0.3,0.2-0.3h2.1c0.2,0,0.2,0.1,0.2,0.3v1c0.3-0.4,0.9-0.8,1.4-1c0.5-0.2,1.1-0.4,2.1-0.3c0.5,0.1,1.3,0.2,1.4,0.2
					C109.1,40.7,109.2,40.7,109.1,40.9z M88.8,35.2c0.1,0,0.2,0.1,0.2,0.3l-0.7,1.8c-0.1,0.1-0.1,0.2-0.4,0.1
					c-0.1,0-0.2-0.1-0.4-0.1c-0.2-0.1-0.4-0.1-0.7-0.1c-0.3,0-0.6,0.1-0.9,0.1c-0.3,0.1-0.5,0.2-0.7,0.4c-0.2,0.2-0.4,0.5-0.6,0.9
					c-0.3,0.9-0.4,1.8-0.4,1.9h2.6c0.2,0,0.3,0.1,0.3,0.3l-0.3,1.7c-0.1,0.3-0.3,0.2-0.3,0.2h-2.7l-1.8,10.6c-0.2,1.1-0.4,2-0.7,2.8
					c-0.3,0.8-0.6,1.3-1.1,1.9c-0.4,0.5-0.9,0.9-1.5,1c-0.5,0.2-1.3,0.3-2,0.3c-0.4,0-0.8,0-1.2-0.1c-0.3-0.1-0.5-0.1-0.8-0.2
					c-0.1-0.1-0.2-0.2-0.1-0.3c0.1-0.2,0.5-1.5,0.6-1.7c0.1-0.2,0.3-0.1,0.3-0.1c0.2,0.1,0.3,0.1,0.4,0.2c0.2,0.1,0.4,0.1,0.7,0.1
					c0.4,0,0.7-0.1,1-0.2c0.3-0.1,0.5-0.3,0.8-0.6c0.2-0.3,0.4-0.7,0.6-1.2c0.2-0.5,0.3-1.2,0.5-2l1.9-10.4h-1.8
					c-0.2,0-0.3-0.1-0.3-0.3l0.3-1.7c0.1-0.3,0.3-0.2,0.3-0.2h1.9l0.1-0.5c0.3-1.6,0.8-2.9,1.6-3.7c0.8-0.8,2-1.3,3.5-1.3
					c0.4,0,0.8,0.1,1.2,0.1C88.2,35.1,88.5,35.1,88.8,35.2z M51.7,53.1c0,0.2-0.1,0.3-0.2,0.3h-2.2c-0.2,0-0.2-0.1-0.2-0.3V35.4
					c0-0.1,0.1-0.3,0.2-0.3h2.2c0.2,0,0.2,0.1,0.2,0.3V53.1z"/>
			</g>
		</g>
	</g>
</g>
</svg>
