<?xml version="1.0" encoding="utf-8"?>
<!-- Generator: Adobe Illustrator 22.0.1, SVG Export Plug-In . SVG Version: 6.00 Build 0)  -->
<svg version="1.1" id="Layer_1" xmlns="http://www.w3.org/2000/svg" xmlns:xlink="http://www.w3.org/1999/xlink" x="0px" y="0px"
	 viewBox="0 0 150 100" style="enable-background:new 0 0 150 100;" xml:space="preserve">
<style type="text/css">
	.st0{fill:#348FFB;}
	.st1{fill:#FFFFFF;}
</style>
<circle class="st0" cx="75" cy="50" r="50"/>
<g>
	<path class="st1" d="M86.3,63.9c-0.4,0.2-0.8,0.1-1.1,0.1c-8.4,0-16.7,0-25.1,0c-2.2,0-4.4-0.4-6.3-1.6c-2.3-1.5-3.6-3.6-4-6.3
		c-0.2-1.1-0.2-2.3-0.2-3.4c0-5.1,0-10.2,0-15.2c0-0.4-0.1-0.8,0.1-1.3c0.3-0.3,0.6-0.2,0.9-0.2c8.8,0,17.6-0.1,26.4,0
		c5.2,0.1,8.8,3.6,9.3,8.5c0.1,1,0.2,2.1,0.2,3.1c0,4.9,0,9.9,0,14.8C86.5,63,86.6,63.4,86.3,63.9z"/>
	<path class="st1" d="M88.9,55.9c0-3.9,0-7.8,0-11.9c3-2.5,6.3-4.9,9.4-7.3c0.3-0.3,0.7-0.4,1.2-0.5c0.7,0.1,1,0.6,1,1.3
		c0,0.2,0,0.4,0,0.6c0,7.9,0,15.9,0,23.8c0,0.3,0,0.6,0,0.9c-0.1,0.9-0.7,1.2-1.5,0.8c-0.3-0.1-0.5-0.3-0.7-0.5
		c-2.9-2.3-5.9-4.5-8.8-6.8C89.2,56.3,89.1,56.1,88.9,55.9z"/>
</g>
</svg>
